<?xml version="1.0" standalone="no"?>
<!DOCTYPE svg PUBLIC "-//W3C//DTD SVG 20010904//EN"
 "http://www.w3.org/TR/2001/REC-SVG-20010904/DTD/svg10.dtd">
<svg version="1.0" xmlns="http://www.w3.org/2000/svg"
 width="382.000000pt" height="382.000000pt" viewBox="0 0 382.000000 382.000000"
 preserveAspectRatio="xMidYMid meet">

<g transform="translate(0.000000,382.000000) scale(0.100000,-0.100000)"
fill="#000000" stroke="none">
<path d="M1695 3620 c11 -4 51 -6 89 -3 61 5 68 4 63 -11 -4 -9 -2 -16 4 -16
5 0 12 6 15 14 6 16 45 10 41 -6 -1 -6 4 -13 11 -15 6 -3 12 2 12 11 0 9 5 16
10 16 5 0 9 -6 8 -12 -2 -8 6 -12 21 -10 14 1 28 -3 32 -10 6 -9 11 -9 23 1
14 12 16 11 16 -6 0 -10 -4 -23 -9 -28 -7 -8 -19 -63 -21 -98 0 -5 -4 -5 -10
-2 -6 4 -8 -6 -6 -24 5 -43 -4 -52 -41 -42 -22 7 -33 6 -36 -2 -2 -7 -2 -2 0
10 3 18 -3 23 -32 29 -19 3 -35 10 -35 16 0 5 -5 6 -10 3 -16 -10 -3 -22 30
-28 32 -7 35 -23 10 -45 -13 -12 -12 -13 8 -9 27 6 29 -9 2 -23 -14 -8 -20 -8
-20 0 0 6 -4 8 -10 5 -5 -3 -10 1 -10 9 0 9 -5 16 -11 16 -8 0 -8 5 1 15 7 8
17 12 23 8 6 -4 7 -1 2 6 -4 8 -17 10 -32 6 -24 -6 -25 -4 -21 28 2 22 -1 34
-9 34 -16 0 -25 -24 -13 -32 17 -11 11 -25 -11 -25 -11 0 -17 5 -14 10 4 6 -6
10 -22 9 -15 0 -22 -3 -15 -6 17 -7 15 -33 -3 -33 -9 0 -18 7 -21 15 -4 8 -14
15 -23 15 -14 0 -14 2 -1 10 13 8 13 10 -1 10 -9 0 -18 -3 -22 -6 -9 -10 4
-34 19 -34 21 0 17 -21 -6 -27 -22 -6 -35 -42 -27 -73 3 -13 -1 -24 -12 -30
-12 -6 -17 -20 -16 -44 0 -19 -3 -32 -8 -29 -5 3 -11 -4 -14 -16 -7 -29 -18
-26 -18 4 0 14 3 25 6 25 12 0 18 60 8 82 -8 20 -9 19 -5 -9 3 -18 1 -33 -4
-33 -6 0 -10 9 -10 20 0 11 -7 20 -16 20 -8 0 -13 -4 -9 -9 3 -5 -3 -16 -12
-23 -28 -20 -28 -41 -1 -33 23 6 23 6 -2 -15 -25 -21 -25 -22 -2 -17 31 7 28
2 -14 -22 -30 -18 -34 -24 -24 -36 7 -8 17 -12 24 -8 6 4 5 -1 -3 -11 -11 -13
-16 -14 -22 -4 -11 17 -87 18 -93 1 -4 -9 7 -15 35 -19 21 -4 41 -10 43 -13 6
-9 -37 -7 -52 3 -7 4 -21 5 -31 1 -13 -4 -25 2 -36 17 -10 13 -15 16 -12 6 7
-20 -23 -34 -35 -16 -6 10 -8 9 -8 -4 0 -9 -4 -18 -10 -20 -5 -2 -6 -9 -1 -17
6 -9 16 -11 27 -6 18 7 18 7 0 14 -18 7 -18 8 4 14 44 11 43 -16 -1 -39 -39
-20 -105 -22 -93 -3 3 5 19 7 35 4 17 -3 28 -2 25 4 -8 12 -45 21 -51 11 -3
-4 -14 -6 -24 -3 -23 6 -68 -22 -76 -48 -4 -10 -11 -19 -16 -19 -6 0 -7 4 -4
10 3 5 0 7 -8 4 -18 -6 -32 12 -17 21 6 4 8 11 5 16 -4 5 -1 9 5 9 25 0 -12
40 -38 41 l-27 1 25 8 c14 4 20 8 13 9 -30 2 4 32 55 48 32 10 59 20 62 24 8
10 119 49 140 49 10 0 31 5 47 12 15 7 33 13 38 13 6 1 17 5 25 8 8 3 21 7 29
9 12 3 -124 20 -512 63 -103 11 -110 10 -134 -8 -21 -17 -29 -18 -44 -9 -10 7
-21 12 -24 12 -7 0 58 -65 67 -66 4 -1 11 -2 16 -3 4 -1 1 -5 -7 -10 -12 -8
-12 -12 -2 -25 7 -9 17 -14 21 -11 5 3 7 -3 5 -12 -1 -10 4 -26 12 -35 15 -17
12 -50 -4 -47 -20 3 -25 -2 -14 -15 10 -12 9 -14 -6 -10 -15 4 -19 0 -18 -23
0 -15 5 -32 10 -36 6 -5 4 -7 -5 -4 -8 2 -15 12 -15 22 0 23 -27 40 -49 32
-19 -8 -13 -51 11 -79 10 -11 11 -18 4 -23 -6 -3 -11 0 -11 8 0 10 -8 13 -25
9 -18 -3 -25 0 -25 12 0 9 -7 16 -15 16 -18 0 -20 -24 -2 -38 6 -6 24 -13 40
-17 23 -6 27 -12 26 -39 -1 -17 -3 -24 -5 -16 -3 9 -14 21 -26 29 -17 11 -22
11 -29 -1 -5 -7 -9 -17 -9 -23 0 -5 5 -3 10 5 6 9 10 10 10 3 0 -7 -10 -17
-21 -24 -23 -12 -23 -14 -3 56 4 16 0 21 -15 22 -12 1 -21 -2 -21 -8 0 -5 6
-9 14 -9 9 0 12 -7 9 -20 -10 -37 -57 -25 -135 35 -40 30 -74 53 -76 50 -2 -2
21 -43 51 -92 75 -122 99 -172 94 -194 -3 -12 0 -19 9 -19 8 0 14 -7 14 -15 0
-16 43 -31 59 -20 18 10 12 -21 -6 -36 -9 -8 -18 -12 -20 -11 -3 2 -7 1 -11
-2 -5 -5 12 -10 29 -8 3 1 4 -10 1 -23 -2 -14 -9 -25 -14 -25 -6 0 -7 7 -4 16
5 14 4 15 -9 4 -10 -8 -15 -9 -15 -1 0 6 -5 11 -12 11 -6 0 -3 -8 7 -20 16
-18 17 -21 1 -44 -9 -14 -16 -34 -16 -44 0 -10 -5 -23 -11 -29 -8 -8 -8 -17 1
-33 11 -21 10 -22 -10 -17 -17 4 -20 2 -16 -10 4 -10 2 -13 -7 -10 -8 3 -14
-1 -14 -9 0 -8 5 -14 11 -14 6 0 6 -4 -1 -11 -14 -14 -36 -2 -26 14 4 7 0 6
-10 -2 -18 -14 -24 -26 -8 -17 5 3 11 -6 14 -20 4 -21 0 -26 -23 -31 -23 -4
-27 -10 -25 -34 1 -16 5 -32 8 -36 9 -9 -2 -23 -19 -23 -8 0 -14 8 -14 17 0
13 -3 14 -12 5 -7 -7 -17 -8 -29 -1 -15 7 -17 6 -13 -5 3 -8 14 -16 23 -18 13
-2 9 -7 -15 -19 -18 -9 -31 -13 -29 -9 3 5 -1 10 -9 13 -7 3 -23 -7 -35 -21
l-22 -27 6 28 c6 21 4 27 -9 27 -10 0 -13 -5 -9 -16 4 -12 2 -15 -8 -12 -8 3
-13 11 -11 18 2 10 0 11 -11 2 -8 -7 -16 -9 -19 -7 -3 3 -4 -15 -2 -40 2 -25
-1 -45 -6 -45 -6 0 -10 12 -10 28 -1 23 -2 25 -11 9 -5 -9 -7 -22 -4 -27 4 -6
1 -9 -5 -8 -7 2 -12 -15 -15 -42 -1 -25 -4 -52 -6 -60 -3 -9 2 -14 13 -12 9 1
19 -2 23 -8 3 -5 2 -10 -4 -10 -6 0 -8 -7 -5 -15 4 -8 1 -15 -5 -15 -6 0 -11
6 -12 13 0 6 -5 -1 -10 -17 -8 -29 -1 -54 8 -28 6 17 23 15 23 -3 0 -8 4 -15
9 -15 5 0 7 -10 4 -22 -4 -20 -3 -21 9 -8 14 16 38 24 38 14 0 -10 -33 -33
-46 -34 -7 0 -15 11 -18 25 -7 27 -36 35 -36 10 0 -8 6 -15 13 -15 6 0 1 -6
-13 -13 -34 -18 -100 -21 -100 -5 0 6 -7 3 -15 -8 -10 -13 -14 -14 -15 -5 0
11 -3 11 -15 1 -12 -10 -15 -10 -15 1 0 12 -2 12 -9 0 -5 -8 -14 -10 -22 -6
-10 6 -11 5 -4 -3 6 -6 78 -28 160 -49 128 -32 154 -42 177 -67 15 -17 25 -32
23 -35 -3 -2 2 -13 12 -23 12 -13 13 -18 3 -18 -7 0 -11 -3 -7 -6 3 -3 15 0
26 8 12 8 18 18 14 21 -3 4 -1 7 6 7 7 0 9 -9 5 -24 -6 -24 11 -45 24 -31 4 4
1 10 -5 12 -10 3 -9 8 3 20 13 14 13 17 -2 34 -15 17 -15 18 4 16 11 0 18 -5
16 -9 -3 -4 3 -8 13 -8 17 -1 17 -1 1 -11 -20 -11 -24 -29 -7 -29 5 0 7 5 3
12 -4 6 -3 8 4 5 12 -8 8 -43 -5 -40 -5 1 -10 -8 -10 -20 -2 -17 0 -19 7 -7 7
10 10 11 10 2 0 -6 3 -11 8 -11 22 4 30 -4 34 -35 2 -19 1 -33 -2 -31 -3 2
-12 0 -19 -5 -11 -6 -8 -11 9 -20 15 -8 20 -8 16 -1 -4 6 -2 11 3 11 11 0 13
-4 14 -42 1 -13 8 -26 17 -29 11 -5 9 -9 -12 -18 -16 -6 -28 -15 -28 -21 0 -6
5 -8 12 -4 7 5 9 2 5 -8 -3 -9 1 -26 10 -38 12 -17 13 -24 3 -33 -6 -7 -11 -7
-10 -2 4 20 0 35 -9 35 -15 0 -3 -43 14 -52 8 -5 15 -17 15 -26 0 -13 -2 -14
-9 -3 -7 11 -9 11 -14 0 -4 -10 -6 -9 -6 3 -1 9 -6 20 -11 23 -7 4 -8 -3 -4
-21 5 -19 4 -25 -5 -20 -6 4 -11 1 -11 -8 0 -8 -3 -23 -7 -33 -6 -17 -5 -17
15 1 12 11 22 15 22 10 0 -5 5 -1 11 9 8 13 14 15 23 8 9 -8 18 -3 35 19 12
17 27 28 32 24 7 -4 6 -10 0 -18 -6 -7 -8 -16 -4 -19 3 -4 -1 -7 -10 -7 -9 0
-33 -25 -53 -55 -31 -46 -34 -56 -23 -68 20 -19 47 -28 53 -16 2 5 3 4 2 -3
-4 -18 -68 -19 -87 -2 -15 13 -17 13 -23 -1 -3 -9 -4 -21 -1 -25 3 -5 1 -11
-5 -15 -5 -3 -10 -1 -10 6 0 7 -8 5 -20 -6 -11 -10 -20 -14 -20 -10 0 5 -9 -1
-19 -12 -11 -11 -40 -30 -65 -43 -25 -12 -48 -25 -51 -30 -13 -22 232 -300
265 -300 8 0 28 9 45 20 26 17 31 18 46 4 14 -13 36 -10 191 21 l175 34 154
-70 c85 -38 159 -76 165 -84 6 -8 16 -70 23 -137 14 -141 19 -163 31 -133 8
18 9 18 9 -5 1 -15 -4 -31 -11 -38 -23 -23 11 -40 110 -52 190 -24 265 -14
557 72 143 43 280 83 305 91 l45 13 31 119 c16 65 35 120 40 122 5 2 26 -11
45 -29 112 -104 136 -113 196 -75 21 13 132 50 246 83 146 41 216 65 233 81
14 13 28 23 31 23 11 0 173 169 173 180 0 10 -37 82 -116 228 l-29 52 28 53
c59 108 82 156 137 282 l57 130 79 11 c43 6 109 14 145 18 l66 7 12 82 c6 45
11 125 11 178 l0 96 -141 38 c-88 24 -143 44 -148 54 -4 9 -14 45 -21 81 -15
81 -32 138 -81 268 -22 56 -39 112 -39 125 0 13 36 72 85 136 47 63 85 115 85
116 0 17 -83 131 -142 195 l-75 82 -224 29 c-132 17 -225 24 -227 19 -2 -5
-17 -3 -33 5 -30 16 -55 10 -87 -22 -21 -20 -38 -16 -75 20 l-34 32 -13 152
c-11 124 -16 153 -29 157 -9 3 -124 23 -256 45 -132 22 -294 50 -360 61 -118
20 -331 27 -290 10z m116 -250 c4 0 6 -7 3 -15 -4 -8 -10 -12 -15 -10 -4 3
-18 -4 -30 -16 -17 -17 -23 -19 -30 -8 -12 19 -11 52 1 44 5 -3 7 -12 3 -20
-4 -11 -1 -13 11 -9 10 4 15 12 12 19 -6 17 4 27 22 20 7 -3 18 -5 23 -5z
m-96 -9 c3 -5 1 -12 -5 -16 -5 -3 -10 1 -10 9 0 18 6 21 15 7z m266 -17 c13
-16 14 -15 -28 -19 -26 -2 -33 1 -33 15 0 21 44 24 61 4z m-131 -40 c0 -7 3
-19 6 -28 3 -9 1 -16 -6 -16 -6 0 -9 4 -6 8 2 4 1 14 -5 22 -6 10 -9 11 -9 3
0 -7 -4 -13 -9 -13 -7 0 -8 29 -2 36 7 7 31 -3 31 -12z m-160 -14 c0 -5 -7 -7
-15 -4 -8 4 -12 10 -9 15 6 11 24 2 24 -11z m227 14 c-3 -3 -12 -4 -19 -1 -8
3 -5 6 6 6 11 1 17 -2 13 -5z m-174 -32 c-3 -12 -9 -22 -14 -22 -5 0 -3 11 3
25 13 30 20 28 11 -3z m35 2 c0 -17 -3 -22 -8 -13 -5 6 -6 18 -3 26 8 19 11
16 11 -13z m182 11 c0 -8 -2 -15 -4 -15 -2 0 -6 7 -10 15 -3 8 -1 15 4 15 6 0
10 -7 10 -15z m-46 -32 c6 2 16 -2 23 -9 17 -16 17 -27 1 -17 -7 4 -19 8 -26
9 -17 3 -42 24 -42 36 0 5 7 2 16 -7 9 -9 21 -14 28 -12z m-354 -7 c0 -2 -7
-7 -16 -10 -8 -3 -12 -2 -9 4 6 10 25 14 25 6z m307 -2 c-3 -3 -12 -4 -19 -1
-8 3 -5 6 6 6 11 1 17 -2 13 -5z m-120 -36 c-3 -7 -5 -2 -5 12 0 14 2 19 5 13
2 -7 2 -19 0 -25z m243 -12 c0 -13 3 -31 6 -40 4 -12 0 -16 -16 -16 -19 0 -20
2 -10 15 7 8 10 25 6 40 -4 14 -2 25 4 25 5 0 10 -11 10 -24z m-1095 4 c3 -5
-1 -10 -9 -10 -9 0 -16 5 -16 10 0 6 4 10 9 10 6 0 13 -4 16 -10z m-1 -29 c3
-5 -1 -11 -9 -15 -8 -3 -17 0 -21 6 -4 7 -3 8 4 4 7 -4 12 -2 12 3 0 13 7 14
14 2z m733 -17 c-3 -3 -12 -4 -19 -1 -8 3 -5 6 6 6 11 1 17 -2 13 -5z m1217
-2 c3 -5 -10 -25 -29 -45 -19 -21 -35 -41 -35 -47 0 -5 -9 -14 -20 -20 -24
-13 -26 -30 -5 -30 8 0 15 -4 15 -10 0 -5 -7 -6 -17 -3 -10 4 -14 2 -10 -4 9
-15 -3 -44 -15 -37 -5 3 -12 -3 -15 -15 -3 -12 -11 -21 -19 -21 -23 0 0 45 25
48 18 3 20 6 10 18 -15 18 -29 18 -29 -1 0 -11 -7 -14 -24 -9 -17 4 -24 2 -23
-8 1 -7 -2 -15 -8 -16 -5 -2 -16 -9 -23 -15 -10 -8 -16 -7 -23 4 -7 12 -9 11
-9 -3 0 -10 14 -21 36 -28 26 -9 32 -15 23 -21 -8 -4 -19 -3 -26 3 -7 6 -31 8
-53 5 -41 -5 -53 5 -24 21 11 6 13 12 6 16 -7 4 -1 16 14 31 14 14 22 29 19
35 -5 8 79 65 96 65 3 0 17 8 30 18 36 27 113 76 121 76 4 1 9 -3 12 -7z
m-1929 -24 c-1 -13 3 -26 9 -30 6 -4 -1 -8 -16 -8 -20 0 -26 -4 -22 -15 4 -8
1 -15 -5 -15 -18 0 -12 29 8 40 13 6 17 17 14 30 -3 11 -1 20 4 20 5 0 9 -10
8 -22z m635 9 c0 -4 -13 -6 -29 -5 -16 1 -28 5 -25 9 5 9 54 6 54 -4z m205 -5
c-3 -3 -11 0 -18 7 -9 10 -8 11 6 5 10 -3 15 -9 12 -12z m1156 1 c13 -16 12
-17 -3 -4 -17 13 -22 21 -14 21 2 0 10 -8 17 -17z m-1248 -5 c46 1 69 -17 25
-19 -13 -1 -38 -2 -55 -4 -18 -1 -33 2 -33 7 0 5 -9 6 -20 3 -11 -3 -20 -2
-20 3 0 16 14 23 35 16 11 -4 41 -7 68 -6z m127 2 c0 -5 7 -10 15 -10 8 0 15
-4 15 -10 0 -13 -11 -12 -32 4 -20 15 -23 26 -8 26 6 0 10 -4 10 -10z m-834
-21 c0 -13 -3 -15 -13 -7 -7 6 -13 14 -13 18 0 3 6 7 13 7 7 0 13 -8 13 -18z
m984 17 c0 -2 -7 -6 -15 -10 -8 -3 -15 -1 -15 4 0 6 7 10 15 10 8 0 15 -2 15
-4z m54 -29 c-9 -24 -23 -11 -17 14 3 12 9 17 15 11 5 -5 6 -16 2 -25z m-124
13 c8 -5 11 -10 5 -10 -5 0 -17 5 -25 10 -8 5 -10 10 -5 10 6 0 17 -5 25 -10z
m490 -5 c7 -9 8 -15 2 -15 -5 0 -12 7 -16 15 -3 8 -4 15 -2 15 2 0 9 -7 16
-15z m-1365 -4 c3 -5 2 -12 -3 -15 -5 -3 -9 1 -9 9 0 17 3 19 12 6z m570 -59
c-16 -15 -17 -15 -12 0 3 9 -1 24 -8 35 -23 30 -17 34 12 7 26 -24 26 -25 8
-42z m-98 52 c-3 -3 -12 -4 -19 -1 -8 3 -5 6 6 6 11 1 17 -2 13 -5z m776 -34
c-3 -11 0 -20 6 -20 6 0 11 5 11 10 0 6 8 10 18 10 13 0 14 2 4 9 -11 7 -11 9
2 14 12 5 16 0 17 -21 1 -17 3 -20 6 -9 5 18 23 24 23 6 0 -6 7 -3 16 6 13 12
19 13 24 4 5 -7 19 -10 37 -6 16 3 35 2 43 -4 13 -7 12 -9 -1 -9 -19 0 -35
-30 -16 -30 9 0 8 -3 -1 -9 -11 -6 -10 -10 4 -15 9 -3 19 -4 22 -1 3 3 1 5 -4
5 -19 0 -13 36 7 37 11 1 17 -2 14 -7 -3 -4 2 -10 10 -14 8 -3 15 -1 15 4 0 5
7 7 15 4 14 -6 13 -8 -1 -19 -23 -16 -1 -30 25 -16 14 8 20 7 25 -4 3 -8 1
-15 -4 -15 -6 0 -19 -9 -30 -20 -12 -12 -25 -18 -31 -15 -5 4 -22 10 -38 15
-21 6 -28 4 -28 -6 0 -9 7 -12 19 -8 10 3 18 1 18 -5 0 -6 -3 -11 -7 -12 -5 0
-20 -2 -35 -4 -24 -3 -27 -1 -19 13 5 9 5 26 0 37 -4 11 -8 14 -8 7 -1 -7 -5
-10 -11 -7 -6 3 -7 -1 -4 -9 4 -11 0 -16 -11 -16 -10 0 -14 5 -9 13 6 10 4 10
-7 0 -7 -7 -18 -13 -23 -13 -6 0 -4 5 4 10 13 8 11 11 -7 16 -35 10 -27 23 10
19 28 -4 30 -3 15 9 -24 17 -23 25 5 36 18 7 16 8 -13 5 -19 -2 -41 -4 -49 -4
-11 -1 -11 -4 3 -14 16 -12 16 -14 -9 -25 -15 -7 -30 -10 -33 -7 -3 3 1 5 9 5
10 1 9 4 -4 11 -9 5 -22 7 -27 4 -9 -5 -14 7 -11 27 0 3 -13 12 -29 20 -17 7
-30 17 -30 22 0 4 11 1 25 -8 28 -18 39 -21 30 -6 -8 13 4 32 15 25 4 -3 6
-14 3 -25z m-1274 -30 c0 -10 -2 -11 -6 -2 -2 6 -11 12 -18 12 -8 0 -19 10
-26 21 -11 21 -11 21 20 3 17 -10 31 -25 30 -34z m741 35 c0 -16 -9 -19 -36
-8 -16 6 -16 7 2 14 29 11 34 10 34 -6z m-193 -17 c-9 -5 -14 -15 -11 -23 5
-11 -1 -15 -19 -15 -33 0 -31 31 3 46 28 13 51 6 27 -8z m313 -7 c0 -3 -10
-12 -21 -20 -18 -11 -23 -11 -30 1 -13 20 -11 34 3 20 19 -19 27 -14 20 11 -5
20 -4 21 11 8 9 -7 17 -16 17 -20z m-1039 5 c5 3 9 0 9 -6 0 -15 -23 -7 -26 8
-1 7 0 8 3 2 2 -5 9 -8 14 -4z m589 -6 c-9 -17 -7 -20 12 -22 13 0 31 -1 41 0
13 1 17 -6 17 -33 0 -19 -4 -35 -8 -35 -5 0 -8 10 -8 23 1 16 -4 21 -19 20
-11 -2 -30 -4 -42 -5 -13 -1 -23 -7 -23 -12 0 -6 -4 -6 -11 1 -14 14 -49 5
-49 -13 0 -8 -6 -14 -12 -14 -9 0 -8 -3 2 -10 22 -14 3 -25 -22 -13 -13 6 -31
9 -40 7 -20 -3 -20 -2 -12 20 4 11 14 14 37 9 18 -3 29 -2 25 2 -8 8 16 36 29
34 28 -5 78 35 67 53 -3 4 2 8 11 8 13 0 14 -4 5 -20z m274 -3 c3 -11 0 -15
-7 -10 -7 4 -18 8 -26 8 -25 0 -22 20 3 20 15 0 27 -7 30 -18z m95 -16 c-2
-23 -2 -24 -6 -3 -5 26 -18 28 -32 5 -6 -11 -11 -13 -11 -5 0 19 23 40 37 35
7 -3 12 -17 12 -32z m450 15 c9 -11 6 -12 -14 -8 -34 6 -32 -11 3 -26 25 -10
25 -11 2 -5 -39 8 -48 22 -26 39 24 17 21 17 35 0z m-752 -2 c-3 -3 -12 -4
-19 -1 -8 3 -5 6 6 6 11 1 17 -2 13 -5z m440 -25 c1 -14 0 -17 -3 -6 -3 9 -10
17 -15 17 -5 0 -9 5 -9 11 0 22 25 2 27 -22z m99 19 c5 -8 2 -9 -9 -5 -10 3
-17 2 -17 -3 0 -6 -4 -10 -10 -10 -5 0 -10 7 -10 15 0 18 36 20 46 3z m-790
-13 c-14 -11 -16 -18 -8 -27 7 -10 7 -24 -1 -51 -12 -39 -27 -49 -28 -19 0 12
-3 10 -10 -7 -7 -17 -13 -21 -20 -14 -12 12 -51 5 -43 -8 3 -5 15 -9 27 -9 21
-1 21 -1 3 -15 -17 -13 -17 -17 -5 -31 12 -15 12 -17 -1 -12 -8 2 -16 14 -18
26 -3 16 -10 21 -28 20 -28 -3 -28 -2 -8 -22 14 -15 13 -16 -7 -16 -18 0 -19
-3 -9 -15 12 -14 5 -39 -9 -30 -5 2 -13 -7 -19 -21 -9 -19 -17 -23 -36 -18
-29 7 -41 -17 -19 -43 13 -16 14 -16 9 -1 -3 10 -1 20 5 24 17 10 20 -1 9 -30
-7 -18 -7 -33 0 -46 7 -13 7 -21 0 -25 -5 -3 -10 1 -10 10 0 12 -6 15 -20 10
-22 -7 -26 5 -9 22 9 9 5 18 -15 38 -14 14 -27 23 -27 20 -1 -3 -2 -8 -3 -12
-1 -5 -5 -14 -9 -20 -5 -9 -3 -13 7 -13 9 0 16 -8 15 -17 0 -11 -3 -13 -6 -5
-7 17 -33 15 -33 -3 0 -8 9 -15 21 -15 11 0 18 -4 15 -9 -3 -5 -16 -7 -28 -3
-17 4 -20 2 -15 -12 5 -12 3 -16 -5 -13 -7 2 -12 14 -10 26 3 20 1 21 -18 11
-22 -12 -42 -50 -56 -105 -6 -23 -4 -27 9 -22 9 3 18 0 21 -9 8 -22 -24 -17
-44 6 -11 13 -21 17 -25 10 -3 -5 -1 -10 4 -10 6 0 11 -7 11 -15 0 -8 -6 -12
-14 -9 -15 6 -29 -43 -15 -52 17 -10 9 -26 -11 -21 -21 5 -29 -16 -10 -28 5
-3 10 -11 10 -16 0 -6 -7 -3 -16 6 -9 9 -17 15 -18 13 -1 -2 -8 -11 -15 -21
-12 -15 -12 -17 3 -11 17 7 23 -11 6 -21 -6 -4 -8 -11 -5 -16 4 -5 -1 -12 -9
-15 -9 -3 -16 -10 -16 -16 0 -5 6 -6 13 -2 9 6 9 5 0 -7 -7 -8 -9 -26 -6 -40
5 -20 3 -22 -8 -11 -18 17 -32 15 -25 -3 3 -8 0 -14 -7 -12 -7 1 -12 -4 -12
-12 0 -8 11 -15 23 -16 34 -3 54 -36 30 -51 -7 -5 -8 -3 -3 6 6 10 4 12 -8 7
-9 -3 -18 0 -21 9 -5 14 -8 14 -21 0 -9 -8 -15 -19 -14 -23 4 -21 -2 -33 -16
-33 -8 0 -15 -5 -15 -11 0 -5 4 -8 9 -4 6 3 15 -3 20 -14 8 -15 7 -20 -6 -25
-9 -4 -13 -9 -10 -12 3 -3 15 -1 26 6 14 7 21 7 21 0 0 -5 -4 -10 -10 -10 -5
0 -10 -5 -10 -11 0 -5 4 -8 9 -5 5 4 6 -4 3 -16 -5 -17 -7 -19 -10 -7 -2 11
-10 15 -23 12 -13 -4 -19 0 -19 11 0 9 -4 16 -10 16 -5 0 -2 -15 7 -34 9 -20
21 -32 28 -29 13 4 28 -12 31 -34 1 -7 -4 -13 -12 -13 -8 0 -14 -5 -14 -11 0
-5 -5 -7 -11 -4 -6 4 -8 13 -5 21 7 18 -8 18 -23 0 -10 -12 -8 -19 9 -36 11
-11 18 -25 15 -30 -6 -9 7 -14 30 -11 6 1 3 -4 -6 -11 -19 -15 -14 -38 9 -38
8 0 12 -3 9 -7 -4 -3 -2 -12 4 -20 6 -7 9 -13 5 -13 -3 0 -1 -11 4 -25 7 -20
6 -25 -5 -25 -14 0 -20 12 -16 34 3 17 -29 55 -43 50 -10 -4 -12 2 -9 20 3 16
1 26 -6 26 -6 0 -11 -5 -11 -12 0 -6 -10 0 -23 13 -19 21 -20 25 -7 36 11 9
18 9 29 0 11 -10 13 -9 9 3 -3 8 -15 14 -27 12 -23 -2 -55 21 -44 32 10 10 25
7 18 -4 -3 -5 -1 -10 6 -10 8 0 10 14 7 45 -3 25 -2 45 3 45 5 0 9 -4 9 -10 0
-5 5 -10 10 -10 20 0 9 29 -12 32 -22 3 -39 28 -18 28 6 0 20 9 32 20 l21 20
-31 -10 c-38 -10 -39 -7 -11 31 14 20 19 38 15 54 -10 38 9 75 39 75 14 0 25
5 25 11 0 7 8 18 17 25 10 7 16 15 13 18 -10 10 -50 -6 -50 -20 0 -7 -4 -16
-10 -19 -6 -3 -7 1 -4 10 5 12 2 14 -12 8 -16 -6 -17 -5 -4 9 8 9 18 14 21 12
4 -2 21 9 38 25 17 16 31 26 32 23 0 -4 5 4 11 18 14 36 18 90 6 87 -6 -1 -12
3 -14 8 -2 6 5 11 16 11 13 0 20 -7 20 -21 0 -15 2 -17 9 -6 5 7 14 10 20 6
18 -11 2 46 -20 71 -11 11 -16 24 -12 28 4 3 12 -2 17 -13 10 -18 13 -18 31
-4 15 11 15 14 3 10 -22 -8 -31 18 -12 34 12 10 13 9 8 -5 -5 -12 -1 -15 15
-13 11 2 24 7 28 12 5 4 2 5 -4 1 -8 -4 -13 -1 -13 8 0 9 4 16 9 16 5 0 4 15
-2 35 -7 24 -13 31 -19 23 -9 -15 -10 -6 -2 16 9 23 24 19 25 -6 0 -22 1 -22
8 -3 5 12 17 20 32 20 31 0 41 19 12 23 -23 3 -33 22 -12 22 6 0 19 10 29 22
15 19 20 20 34 9 14 -11 16 -11 16 3 0 9 -7 16 -15 16 -8 0 -15 5 -15 10 0 6
11 10 25 10 19 0 24 5 22 21 -1 12 4 24 11 26 7 3 11 -1 10 -7 -2 -7 3 -15 11
-18 8 -2 11 0 7 6 -3 6 -2 13 4 17 5 3 10 12 10 18 0 7 -4 6 -10 -3 -6 -9 -10
-10 -10 -3 0 6 5 15 10 18 7 4 7 12 0 25 -7 13 -6 19 4 23 9 4 12 0 9 -13 -3
-10 0 -21 6 -24 6 -4 11 -3 11 3 0 6 7 8 15 5 11 -5 15 1 15 22 0 18 3 24 8
17 11 -17 55 -4 48 14 -4 8 -3 20 1 26 4 7 9 3 13 -11 5 -23 24 -31 26 -12 1
6 2 15 3 20 1 12 51 14 51 1 0 -11 49 -1 57 12 4 6 1 7 -7 2 -10 -6 -12 -4 -7
8 4 11 1 17 -8 17 -12 0 -12 4 2 20 10 11 24 20 33 20 12 -1 11 -4 -4 -15z
m944 11 c0 -3 -4 -8 -10 -11 -5 -3 -10 -1 -10 4 0 6 5 11 10 11 6 0 10 -2 10
-4z m-1337 -20 c4 -10 1 -13 -9 -9 -7 3 -14 9 -14 14 0 14 17 10 23 -5z m72 4
c4 -6 11 -7 17 -4 6 4 8 2 5 -4 -8 -12 -47 -4 -47 9 0 12 17 11 25 -1z m679
-11 c-3 -5 -10 -7 -15 -3 -5 3 -7 10 -3 15 3 5 10 7 15 3 5 -3 7 -10 3 -15z
m119 1 c-3 -12 -8 -19 -11 -16 -5 6 5 36 12 36 2 0 2 -9 -1 -20z m177 6 c0 -2
-9 -6 -20 -9 -11 -3 -18 -1 -14 4 5 9 34 13 34 5z m80 -6 c0 -5 -2 -10 -4 -10
-3 0 -8 5 -11 10 -3 6 -1 10 4 10 6 0 11 -4 11 -10z m-975 -18 c-3 -3 -11 0
-18 7 -9 10 -8 11 6 5 10 -3 15 -9 12 -12z m278 11 c-7 -2 -19 -2 -25 0 -7 3
-2 5 12 5 14 0 19 -2 13 -5z m355 -12 c11 -6 10 -9 -5 -13 -23 -6 -45 1 -37
13 7 11 25 11 42 0z m202 5 c0 -9 -30 -14 -35 -6 -4 6 3 10 14 10 12 0 21 -2
21 -4z m320 -6 c0 -5 -4 -10 -10 -10 -5 0 -10 5 -10 10 0 6 5 10 10 10 6 0 10
-4 10 -10z m-1280 -5 c0 -1 -9 -12 -20 -25 -19 -22 -26 -17 -15 13 5 10 35 21
35 12z m886 -19 c0 -13 -7 -29 -15 -37 -13 -11 -14 -11 -8 3 3 9 1 19 -6 21
-8 3 -5 10 8 21 11 8 21 16 21 16 1 0 1 -11 0 -24z m247 10 c3 -8 0 -17 -8
-20 -14 -5 -28 17 -18 28 10 10 21 7 26 -8z m116 -8 c12 -16 11 -17 -18 -12
-24 5 -31 3 -31 -10 0 -9 -5 -16 -11 -16 -5 0 -8 -4 -4 -9 3 -6 -4 -9 -15 -8
-21 1 -37 27 -17 28 7 0 28 11 47 23 19 13 35 23 35 22 1 0 7 -9 14 -18z
m-699 -9 c0 -6 -4 -7 -10 -4 -5 3 -10 11 -10 16 0 6 5 7 10 4 6 -3 10 -11 10
-16z m384 12 c3 -4 -1 -16 -8 -26 -9 -13 -15 -15 -20 -7 -4 7 -3 12 3 12 6 0
8 7 5 15 -6 16 11 21 20 6z m126 -11 c12 -8 11 -10 -7 -10 -13 0 -24 -8 -28
-20 -6 -18 -8 -18 -21 -5 -16 16 -19 30 -5 30 5 0 13 3 17 8 10 10 26 9 44 -3z
m431 -20 c5 0 9 -4 9 -9 0 -5 -14 -2 -32 6 -28 15 -30 17 -12 23 12 5 20 3 22
-6 2 -8 8 -14 13 -14z m-751 4 c0 -14 -3 -14 -15 -4 -8 7 -15 14 -15 16 0 2 7
4 15 4 8 0 15 -7 15 -16z m223 -1 c-7 -3 -9 -11 -6 -19 3 -8 -1 -14 -11 -14
-13 0 -14 4 -4 25 6 13 16 21 21 18 8 -5 7 -8 0 -10z m-463 -3 c0 -5 -2 -10
-4 -10 -3 0 -8 5 -11 10 -3 6 -1 10 4 10 6 0 11 -4 11 -10z m75 -18 c-8 -8
-25 10 -19 20 4 6 9 5 15 -3 4 -7 6 -15 4 -17z m205 24 c0 -2 -3 -11 -6 -20
-9 -23 -23 -20 -21 4 1 11 7 20 14 20 7 0 13 -2 13 -4z m64 -12 c10 -26 7 -33
-14 -29 -14 3 -20 -2 -20 -16 0 -10 -4 -19 -8 -19 -4 0 -8 9 -8 20 0 11 4 20
7 20 4 0 11 9 14 20 8 24 21 26 29 4z m503 3 c3 -4 -3 -7 -15 -7 -12 0 -22 -4
-22 -10 0 -5 -4 -10 -10 -10 -5 0 -10 9 -10 19 0 15 6 19 25 17 14 -1 28 -6
32 -9z m624 -1 c5 3 9 0 9 -6 0 -7 -8 -9 -21 -5 -12 4 -19 3 -16 -2 3 -4 -1
-17 -9 -28 -8 -10 -14 -14 -14 -9 0 6 5 15 12 22 7 7 8 12 4 12 -5 0 -2 7 5
16 8 10 15 12 17 5 2 -6 8 -9 13 -5z m-1941 -17 c0 -6 -4 -7 -10 -4 -5 3 -10
11 -10 16 0 6 5 7 10 4 6 -3 10 -11 10 -16z m630 17 c0 -3 -4 -8 -10 -11 -5
-3 -10 -1 -10 4 0 6 5 11 10 11 6 0 10 -2 10 -4z m47 -18 c2 -15 -1 -18 -6
-10 -6 9 -12 8 -26 -8 -22 -24 -35 -26 -35 -4 0 11 5 14 16 10 11 -4 18 1 21
14 7 27 28 25 30 -2z m363 7 c0 -8 -4 -15 -8 -15 -5 0 -9 7 -9 15 0 8 4 15 9
15 4 0 8 -7 8 -15z m-83 -26 c-13 -20 -42 -25 -52 -9 -3 6 1 7 10 4 11 -5 18
0 22 14 3 12 11 18 19 15 10 -4 11 -9 1 -24z m123 27 c0 -2 -7 -6 -15 -10 -8
-3 -15 -1 -15 4 0 6 7 10 15 10 8 0 15 -2 15 -4z m300 -6 c0 -5 -5 -10 -11
-10 -5 0 -7 5 -4 10 3 6 8 10 11 10 2 0 4 -4 4 -10z m-847 -43 c5 -12 3 -16
-5 -11 -8 5 -9 2 -4 -11 6 -15 4 -16 -9 -5 -9 8 -14 22 -12 32 3 10 1 18 -5
18 -5 0 -6 5 -3 10 7 12 28 -6 38 -33z m677 27 c0 -2 -7 -4 -15 -4 -8 0 -15 4
-15 10 0 5 7 7 15 4 8 -4 15 -8 15 -10z m644 4 c-3 -4 -12 -8 -20 -8 -8 0 -14
-5 -14 -12 0 -6 -2 -9 -5 -6 -11 11 7 37 25 35 10 -1 16 -5 14 -9z m116 -3
c-7 -9 -15 -13 -19 -10 -3 3 1 10 9 15 21 14 24 12 10 -5z m-2085 -5 c3 -5 1
-10 -4 -10 -6 0 -11 5 -11 10 0 6 2 10 4 10 3 0 8 -4 11 -10z m561 -2 c4 -7 3
-8 -4 -4 -7 4 -12 2 -12 -4 0 -6 -4 -8 -10 -5 -5 3 -10 10 -10 16 0 13 27 11
36 -3z m434 -9 c0 -5 -4 -9 -10 -9 -5 0 -10 7 -10 16 0 8 5 12 10 9 6 -3 10
-10 10 -16z m230 10 c0 -5 5 -7 12 -3 6 4 -3 -13 -22 -39 -18 -25 -37 -44 -41
-41 -5 3 -9 -1 -10 -8 0 -10 -2 -10 -6 1 -5 11 -7 11 -14 0 -7 -11 -9 -10 -9
4 0 10 6 20 14 23 8 3 12 13 10 22 -3 9 1 7 8 -5 l14 -23 18 22 c18 20 18 21
-2 16 -20 -6 -20 -5 -5 18 16 25 33 32 33 13z m136 -7 c1 -7 0 -8 -3 -2 -2 5
-9 8 -14 4 -5 -3 -9 0 -9 6 0 15 23 7 26 -8z m324 3 c0 -11 -29 -11 -33 -1 -4
10 1 12 14 9 10 -3 19 -7 19 -8z m-1624 -15 c0 -12 -4 -16 -9 -11 -5 5 -6 14
-3 20 10 15 12 14 12 -9z m784 8 c0 -9 4 -8 10 2 5 8 10 10 10 4 0 -12 -46
-54 -60 -54 -5 0 -7 -7 -4 -15 4 -9 0 -15 -10 -15 -24 0 -16 47 11 61 13 7 23
16 23 21 0 4 5 8 10 8 6 0 10 -6 10 -12z m290 8 c0 -2 -7 -7 -16 -10 -8 -3
-12 -2 -9 4 6 10 25 14 25 6z m155 -6 c3 -5 -3 -10 -15 -10 -12 0 -18 5 -15
10 3 6 10 10 15 10 5 0 12 -4 15 -10z m168 -11 c4 -16 2 -20 -11 -17 -10 3
-23 -1 -30 -9 -13 -13 -5 -18 23 -14 6 1 1 -6 -10 -14 -12 -10 -21 -12 -23 -5
-2 5 -13 10 -25 10 l-21 0 22 16 c12 8 19 20 16 26 -5 7 -1 9 9 5 9 -3 22 0
29 8 7 8 14 14 14 15 1 0 4 -9 7 -21z m77 17 c0 -3 -4 -8 -10 -11 -5 -3 -10
-1 -10 4 0 6 5 11 10 11 6 0 10 -2 10 -4z m-934 -61 c0 -33 -3 -42 -12 -34
-16 13 -25 -10 -13 -33 7 -13 4 -20 -11 -28 -16 -8 -20 -8 -20 4 0 8 5 16 11
18 6 2 1 14 -10 27 -27 32 -26 37 7 36 24 0 27 4 27 31 -1 19 3 30 10 28 6 -2
10 -24 11 -49z m356 48 c-6 -2 -9 -9 -6 -15 3 -5 -1 -15 -9 -21 -10 -8 -12
-19 -7 -32 7 -19 7 -19 14 3 4 12 14 22 22 22 8 0 18 8 21 17 6 15 7 15 14 -3
11 -28 10 -44 -2 -44 -5 0 -7 5 -4 10 3 6 1 10 -6 10 -6 0 -9 -8 -6 -20 3 -11
0 -20 -6 -20 -6 0 -7 -3 -4 -6 4 -4 13 -2 20 4 8 7 17 9 20 5 4 -3 7 -1 7 5 0
7 8 12 18 12 14 0 15 2 2 10 -13 8 -12 11 5 25 16 12 17 14 3 9 -10 -3 -18 -2
-18 3 0 5 23 10 51 11 l51 1 -23 -25 c-12 -13 -17 -24 -11 -24 7 0 12 -5 12
-11 0 -7 -10 -9 -25 -7 -14 3 -33 -1 -42 -9 -17 -13 -16 -14 5 -10 27 6 29 -9
2 -18 -11 -4 -18 -10 -15 -14 2 -5 -8 -13 -23 -20 -24 -10 -25 -10 -9 2 19 16
24 53 6 41 -7 -4 -27 -8 -46 -10 -31 -3 -33 -1 -21 13 12 15 10 16 -22 10 -25
-5 -31 -4 -20 3 13 9 12 12 -4 25 -11 8 -14 15 -8 15 7 0 12 7 12 16 0 9 5 12
12 8 8 -5 9 0 6 14 -5 19 -2 22 20 21 15 0 21 -3 14 -6z m798 -3 c0 -5 -7 -10
-16 -10 -8 0 -12 5 -9 10 3 6 10 10 16 10 5 0 9 -4 9 -10z m-1032 -16 c4 2 12
-2 19 -9 9 -10 6 -12 -13 -12 -28 0 -39 11 -28 29 6 9 9 9 12 0 2 -7 7 -10 10
-8z m52 12 c0 -3 -4 -8 -10 -11 -5 -3 -10 -1 -10 4 0 6 5 11 10 11 6 0 10 -2
10 -4z m553 -18 c3 -12 2 -29 -3 -37 -8 -14 -9 -14 -10 -1 0 8 -3 25 -6 38 -4
12 -2 22 4 22 5 0 12 -10 15 -22z m757 12 c0 -5 -2 -10 -4 -10 -3 0 -8 5 -11
10 -3 6 -1 10 4 10 6 0 11 -4 11 -10z m-1962 -25 c-3 -3 -9 2 -12 12 -6 14 -5
15 5 6 7 -7 10 -15 7 -18z m392 3 c0 -22 -18 -24 -26 -4 -3 9 -12 12 -21 9
-11 -4 -14 -2 -9 5 11 19 56 10 56 -10z m751 -1 c-10 -9 -11 -8 -5 6 3 10 9
15 12 12 3 -3 0 -11 -7 -18z m869 3 c13 -23 37 -26 42 -5 2 10 7 6 15 -11 9
-20 9 -23 -1 -15 -9 8 -17 3 -29 -19 -13 -21 -14 -29 -5 -33 9 -3 7 -7 -5 -12
-27 -11 -30 -1 -12 34 15 31 15 31 -10 41 -14 5 -25 16 -25 25 0 21 17 19 30
-5z m-2140 -12 c0 -4 -11 -7 -24 -6 -14 1 -23 5 -21 8 5 9 45 7 45 -2z m565 2
c-3 -5 -12 -7 -20 -3 -21 7 -19 13 6 13 11 0 18 -4 14 -10z m708 -13 c11 -4
16 -3 12 3 -3 6 1 10 9 10 8 0 14 -8 13 -17 -1 -13 -10 -18 -30 -19 -16 -1
-34 -8 -38 -17 -6 -9 -17 -13 -29 -10 -39 10 -15 39 30 36 15 -1 18 0 8 3 -19
6 -23 16 -11 27 4 4 9 4 12 -1 3 -5 14 -11 24 -15z m347 14 c0 -6 -4 -13 -10
-16 -5 -3 -10 1 -10 9 0 9 5 16 10 16 6 0 10 -4 10 -9z m-1158 -8 c-6 -2 -10
-9 -6 -14 3 -5 -2 -9 -10 -9 -17 0 -21 12 -9 23 3 4 13 7 22 6 11 0 12 -2 3
-6z m1011 -13 c-3 -11 -9 -20 -15 -20 -5 0 -4 9 2 20 6 11 12 20 14 20 2 0 2
-9 -1 -20z m57 11 c0 -6 -4 -13 -10 -16 -5 -3 -10 1 -10 9 0 9 5 16 10 16 6 0
10 -4 10 -9z m570 -1 c0 -5 -5 -10 -11 -10 -5 0 -7 5 -4 10 3 6 8 10 11 10 2
0 4 -4 4 -10z m-1753 -6 c-3 -3 -12 -4 -19 -1 -8 3 -5 6 6 6 11 1 17 -2 13 -5z
m67 -9 c3 -9 0 -15 -8 -15 -8 0 -23 -3 -33 -7 -16 -5 -16 -4 2 15 24 25 31 27
39 7z m270 3 c-4 -6 -7 -26 -6 -44 1 -18 -4 -36 -10 -40 -7 -4 -8 -3 -4 4 4 7
2 12 -5 12 -10 0 -10 3 -2 11 9 9 7 16 -9 29 -19 15 -19 17 -5 23 10 4 17 1
17 -6 0 -7 5 -4 11 6 5 9 12 17 15 17 3 0 2 -5 -2 -12z m46 -3 c0 -9 -6 -12
-16 -8 -13 5 -13 7 -2 14 17 11 18 11 18 -6z m646 -15 c8 0 14 5 14 12 0 6 3
8 7 5 7 -7 -32 -48 -61 -64 -16 -9 -16 -11 -2 -16 8 -3 22 1 31 9 22 22 19 1
-4 -24 -22 -27 -28 -27 -35 -4 -2 9 -3 3 -1 -15 2 -24 0 -30 -11 -26 -8 3 -14
-1 -14 -11 0 -9 5 -16 11 -16 5 0 7 -5 3 -12 -6 -9 -9 -9 -11 -1 -3 7 -11 9
-19 6 -22 -8 -17 25 6 37 21 11 19 30 -3 26 -25 -4 -37 -18 -37 -44 0 -15 -5
-34 -11 -42 -7 -11 -9 -3 -7 30 3 41 1 45 -19 44 -16 0 -23 5 -23 19 0 13 5
17 15 13 9 -3 15 0 15 10 0 8 4 13 9 9 5 -3 12 -1 16 5 4 6 10 8 14 5 5 -2 16
4 26 15 10 11 26 20 35 20 10 0 21 10 25 23 6 19 8 19 12 5 2 -10 11 -18 19
-18z m304 15 c7 -9 10 -18 6 -22 -3 -3 -6 -2 -6 4 0 6 -7 10 -16 9 -9 0 -19 5
-21 12 -6 17 22 15 37 -3z m340 11 c0 -11 -19 -15 -25 -6 -3 5 1 10 9 10 9 0
16 -2 16 -4z m-1145 -17 c-7 -11 -35 -12 -35 -1 0 4 9 8 20 9 11 1 18 -2 15
-8z m-366 -22 c10 3 22 0 25 -6 4 -6 2 -11 -4 -11 -7 0 -8 -6 -1 -18 6 -11 6
-24 0 -35 -8 -14 -6 -17 10 -17 10 0 21 6 24 13 2 6 7 9 11 6 3 -3 4 -13 1
-21 -6 -15 -75 -13 -75 3 0 5 -7 9 -15 9 -9 0 -12 6 -9 15 4 8 12 15 20 15 8
0 14 7 14 15 0 8 -6 15 -14 15 -19 0 -29 17 -19 33 6 9 8 8 11 -4 2 -11 10
-15 21 -12z m987 -14 c-11 -11 -17 4 -9 23 7 18 8 18 11 1 2 -10 1 -21 -2 -24z
m-1045 13 c17 10 23 -28 6 -41 -9 -6 -18 -26 -19 -43 -1 -18 -8 -32 -15 -32
-7 0 -13 -6 -13 -14 0 -8 -7 -16 -14 -19 -10 -4 -13 -1 -9 9 4 12 -3 14 -41
11 -25 -2 -46 -1 -46 1 0 3 10 14 23 26 12 11 21 29 19 40 -3 13 0 16 10 11 7
-5 10 -5 6 0 -5 5 6 17 22 27 37 22 41 22 34 3 -4 -8 -12 -15 -20 -15 -14 0
-18 -12 -15 -39 2 -7 -2 -10 -8 -6 -6 3 -11 1 -11 -4 0 -17 40 -13 47 5 5 13
7 13 14 2 6 -9 9 -6 10 12 1 14 1 28 0 33 0 4 4 7 11 7 9 0 9 3 0 12 -7 7 -12
17 -11 23 0 5 3 4 6 -3 2 -6 9 -10 14 -6z m399 -3 c8 2 21 7 29 11 11 7 13 5
8 -7 -5 -13 -1 -17 18 -17 16 0 25 -6 25 -16 0 -8 4 -13 9 -10 5 3 12 -1 15
-10 3 -8 2 -12 -4 -9 -6 3 -10 1 -10 -4 0 -6 -7 -11 -16 -11 -13 0 -14 3 -5
14 16 19 -4 32 -24 16 -10 -8 -16 -6 -27 9 -17 24 -58 18 -58 -8 0 -14 -2 -14
-10 -1 -5 8 -5 17 -1 20 4 3 11 14 15 25 5 13 9 16 14 8 4 -7 14 -11 22 -10z
m434 2 c-4 -8 -14 -15 -23 -15 -14 1 -13 3 3 15 25 19 27 19 20 0z m133 -10
c-23 -22 -33 -18 -12 5 10 11 20 18 23 16 2 -3 -3 -12 -11 -21z m-1056 5 c5 0
9 -5 9 -11 0 -6 -7 -9 -15 -5 -8 3 -15 1 -15 -4 0 -6 -4 -10 -10 -10 -5 0 -10
9 -10 21 0 15 4 19 16 15 9 -3 20 -6 25 -6z m276 -5 c0 -8 -4 -15 -9 -15 -4 0
-8 7 -8 15 0 8 4 15 8 15 5 0 9 -7 9 -15z m527 3 c-14 -22 -38 -48 -45 -48 -4
0 -5 8 -2 18 3 14 22 29 51 41 2 0 0 -4 -4 -11z m1031 2 c3 -5 1 -10 -4 -10
-6 0 -11 5 -11 10 0 6 2 10 4 10 3 0 8 -4 11 -10z m-1455 -4 c0 -2 3 -12 6
-20 5 -12 2 -15 -10 -10 -9 3 -14 10 -11 14 3 5 -1 11 -7 13 -8 3 -6 6 5 6 9
1 17 -1 17 -3z m40 -22 c0 -22 -16 -17 -17 6 -1 11 2 18 8 15 5 -4 9 -13 9
-21z m783 6 c3 -12 0 -20 -7 -20 -6 0 -12 9 -12 20 0 11 3 20 7 20 4 0 9 -9
12 -20z m165 -5 c-3 -3 -9 2 -12 12 -6 14 -5 15 5 6 7 -7 10 -15 7 -18z m-635
-15 c3 -11 3 -20 1 -20 -2 0 -8 9 -14 20 -6 11 -7 20 -2 20 6 0 12 -9 15 -20z
m387 10 c3 0 -8 -8 -23 -16 -32 -17 -46 -12 -28 10 10 12 21 13 51 6z m720 4
c0 -14 -45 -45 -48 -34 -2 6 4 18 14 25 20 15 34 19 34 9z m-1026 -43 c-9 -10
-26 18 -18 30 5 9 9 8 14 -7 4 -10 6 -21 4 -23z m496 4 c-7 -8 -18 -15 -24
-15 -6 0 -4 5 4 10 8 5 11 10 5 10 -5 0 -3 4 5 10 20 12 26 4 10 -15z m42 -1
c-7 -12 -11 -13 -17 -4 -4 7 -2 16 6 21 18 11 23 4 11 -17z m-1072 6 c0 -5 -2
-10 -4 -10 -3 0 -8 5 -11 10 -3 6 -1 10 4 10 6 0 11 -4 11 -10z m131 1 c-10
-6 -12 -21 -9 -48 5 -38 5 -40 -19 -35 -15 3 -20 7 -13 12 6 4 10 13 9 21 -4
19 19 59 34 59 8 0 7 -3 -2 -9z m759 -11 c-6 -11 -12 -20 -14 -20 -2 0 -2 9 1
20 3 11 9 20 15 20 5 0 4 -9 -2 -20z m-836 0 c9 0 12 -9 8 -25 -4 -25 -42 -37
-42 -14 0 5 5 7 10 4 6 -3 10 -1 10 4 0 6 -5 11 -11 11 -5 0 -8 4 -5 9 4 5 3
11 -1 14 -5 2 -2 2 5 0 8 -1 19 -3 26 -3z m171 0 c-3 -6 1 -13 10 -16 12 -5
15 -14 10 -32 -4 -16 -1 -28 7 -33 9 -6 6 -9 -9 -9 -25 0 -28 7 -13 30 5 8 5
17 1 20 -14 9 -23 50 -11 50 6 0 8 -5 5 -10z m190 0 c-3 -5 -12 -7 -20 -3 -21
7 -19 13 6 13 11 0 18 -4 14 -10z m542 4 c-3 -3 -12 -4 -19 -1 -8 3 -5 6 6 6
11 1 17 -2 13 -5z m-810 -26 c-3 -8 -6 -5 -6 6 -1 11 2 17 5 13 3 -3 4 -12 1
-19z m208 12 c3 -5 -3 -10 -15 -10 -12 0 -18 5 -15 10 3 6 10 10 15 10 5 0 12
-4 15 -10z m145 0 c0 -5 -4 -10 -10 -10 -5 0 -10 5 -10 10 0 6 5 10 10 10 6 0
10 -4 10 -10z m253 3 c-7 -2 -19 -2 -25 0 -7 3 -2 5 12 5 14 0 19 -2 13 -5z
m704 -15 c-3 -8 -6 -5 -6 6 -1 11 2 17 5 13 3 -3 4 -12 1 -19z m-1790 6 c-3
-3 -12 -4 -19 -1 -8 3 -5 6 6 6 11 1 17 -2 13 -5z m180 -8 c0 -19 -34 -28 -41
-11 -6 16 2 25 24 25 9 0 17 -6 17 -14z m664 -27 c-6 -16 -10 -18 -10 -7 -1
22 12 55 16 42 2 -6 -1 -22 -6 -35z m346 35 c-3 -3 -12 -4 -19 -1 -8 3 -5 6 6
6 11 1 17 -2 13 -5z m73 2 c0 -3 -4 -8 -10 -11 -5 -3 -10 -1 -10 4 0 6 5 11
10 11 6 0 10 -2 10 -4z m570 -5 c0 -6 -4 -13 -10 -16 -5 -3 -10 1 -10 9 0 9 5
16 10 16 6 0 10 -4 10 -9z m-1190 -22 c0 -4 -7 -6 -15 -3 -8 4 -15 10 -15 15
0 4 7 6 15 3 8 -4 15 -10 15 -15z m431 -5 c15 3 31 1 34 -4 6 -10 2 -11 -47
-14 -24 -2 -28 2 -27 24 1 18 3 20 6 6 4 -14 11 -17 34 -12z m-251 12 c0 -3
-4 -8 -10 -11 -5 -3 -10 -1 -10 4 0 6 5 11 10 11 6 0 10 -2 10 -4z m70 -16 c6
-11 7 -20 2 -20 -6 0 -12 9 -15 20 -3 11 -3 20 -1 20 2 0 8 -9 14 -20z m608 3
c-1 -10 1 -24 5 -30 11 -18 -1 -16 -20 2 -12 12 -13 19 -3 30 16 20 22 19 18
-2z m-1312 -41 c-8 -15 -22 -34 -30 -41 -9 -7 -14 -17 -11 -21 3 -5 1 -11 -5
-15 -19 -12 -10 34 10 48 11 8 17 17 13 20 -3 4 -1 7 5 7 7 0 12 8 12 18 0 21
13 38 18 23 2 -5 -4 -23 -12 -39z m1048 21 c-4 -14 -11 -20 -20 -16 -13 5 -12
8 2 24 21 23 25 21 18 -8z m212 2 c1 -8 -4 -11 -11 -8 -8 2 -11 11 -8 19 6 16
16 11 19 -11z m333 16 c8 -5 9 -11 3 -15 -5 -3 -15 1 -22 9 -14 16 -3 20 19 6z
m-1057 -33 c-7 -7 -10 -5 -7 8 5 29 6 30 12 16 3 -8 1 -18 -5 -24z m68 16 c0
-8 -4 -12 -10 -9 -5 3 -10 10 -10 16 0 5 5 9 10 9 6 0 10 -7 10 -16z m500 6
c0 -5 -5 -9 -11 -7 -6 1 -14 -4 -16 -11 -3 -8 1 -10 14 -6 15 6 16 5 5 -7 -7
-8 -18 -14 -25 -14 -7 -1 -11 -6 -10 -12 1 -6 -5 -10 -15 -8 -9 1 -20 -3 -24
-9 -5 -7 -8 -7 -8 -1 0 16 62 85 77 85 7 0 13 -4 13 -10z m-1313 -34 c-4 -9
-11 -16 -17 -16 -13 0 -13 17 0 25 6 4 7 12 4 18 -5 9 -4 9 6 0 7 -6 10 -19 7
-27z m146 14 c-10 -11 -19 -20 -21 -20 -1 0 2 9 8 20 6 11 15 20 20 20 6 0 2
-9 -7 -20z m201 5 c3 -8 1 -15 -3 -15 -5 0 -11 7 -15 15 -3 8 -1 15 3 15 5 0
11 -7 15 -15z m182 -33 c-4 -3 -11 -1 -18 6 -8 8 -8 15 3 28 13 16 14 16 17
-5 2 -13 1 -25 -2 -29z m-597 6 c2 -80 0 -76 14 -43 9 19 16 25 21 17 4 -7 2
-12 -3 -12 -6 0 -11 -4 -11 -10 0 -16 14 -12 39 11 12 12 24 19 26 17 3 -2 -8
-15 -24 -29 -30 -26 -78 -33 -73 -10 2 8 -3 11 -13 8 -9 -4 -15 -1 -15 8 0 9
6 12 16 8 11 -4 15 -2 13 6 -3 7 -8 12 -12 12 -4 -1 -14 -1 -22 -1 -9 0 -12
-6 -9 -15 4 -8 2 -15 -4 -15 -6 0 -12 5 -14 10 -2 7 -18 6 -45 -4 -34 -12 -41
-12 -37 -1 3 7 23 16 45 20 27 5 39 12 39 23 0 13 2 14 8 4 9 -13 42 -6 42 9
0 20 19 7 19 -13z m181 0 c0 -6 -7 -8 -15 -4 -8 3 -14 2 -14 -2 3 -21 -3 -32
-17 -32 -11 0 -14 5 -10 16 3 9 6 21 6 28 0 9 9 12 25 8 14 -2 25 -9 25 -14z
m1057 16 c-3 -3 -12 -4 -19 -1 -8 3 -5 6 6 6 11 1 17 -2 13 -5z m223 2 c0 -2
-7 -9 -15 -16 -13 -11 -14 -10 -9 4 5 14 24 23 24 12z m-1703 -28 c-3 -8 -6
-5 -6 6 -1 11 2 17 5 13 3 -3 4 -12 1 -19z m113 6 c0 -8 -5 -12 -10 -9 -6 4
-8 11 -5 16 9 14 15 11 15 -7z m354 2 c-8 -22 -54 -50 -54 -34 0 10 33 37 57
47 1 1 0 -5 -3 -13z m839 -7 c-4 -15 -9 -17 -17 -9 -8 8 -7 13 4 20 8 5 16 10
17 10 0 0 -1 -9 -4 -21z m420 6 c-3 -9 -8 -14 -10 -11 -3 3 -2 9 2 15 9 16 15
13 8 -4z m-966 -17 c-3 -8 -6 -5 -6 6 -1 11 2 17 5 13 3 -3 4 -12 1 -19z m608
12 c-3 -5 -16 -15 -28 -21 -21 -10 -21 -9 2 10 25 23 36 27 26 11z m62 -22
c-3 -8 -6 -5 -6 6 -1 11 2 17 5 13 3 -3 4 -12 1 -19z m82 -5 c2 -1 -10 -1 -27
0 -23 1 -28 5 -20 15 8 10 14 10 27 0 9 -7 18 -13 20 -15z m266 17 c3 -5 1
-10 -4 -10 -6 0 -11 5 -11 10 0 6 2 10 4 10 3 0 8 -4 11 -10z m-98 -55 c1 -11
-1 -15 -3 -9 -3 7 -14 10 -24 7 -22 -6 -26 7 -8 25 9 9 9 12 -1 12 -7 0 -9 5
-6 11 10 14 41 -20 42 -46z m23 45 c0 -5 -4 -10 -10 -10 -5 0 -10 5 -10 10 0
6 5 10 10 10 6 0 10 -4 10 -10z m355 1 c3 -5 1 -12 -5 -16 -5 -3 -10 1 -10 9
0 18 6 21 15 7z m-1431 -22 c-29 -12 -36 -10 -22 5 7 7 19 11 27 8 11 -4 10
-7 -5 -13z m1186 11 c-8 -5 -19 -10 -25 -10 -5 0 -3 5 5 10 8 5 20 10 25 10 6
0 3 -5 -5 -10z m-1420 -17 c-1 -23 -16 -31 -33 -18 -14 10 -15 14 -5 18 20 8
38 8 38 0z m1334 -14 c-9 -15 -34 -10 -28 5 3 8 12 12 20 9 8 -3 11 -9 8 -14z
m-337 -14 c2 -17 1 -17 -3 -2 -3 11 -12 16 -20 13 -7 -3 -16 -1 -18 3 -3 5 4
8 17 7 14 -1 22 -8 24 -21z m224 6 c-8 -5 -10 -14 -6 -21 6 -9 9 -10 15 0 5 8
16 9 30 5 17 -5 19 -9 9 -16 -11 -6 -10 -9 4 -14 19 -8 17 -47 -2 -53 -9 -3
-11 2 -6 17 4 13 1 27 -9 37 -10 10 -16 11 -16 3 0 -9 -3 -9 -14 0 -11 10 -20
10 -36 1 -24 -13 -36 -8 -25 9 3 6 11 8 17 5 6 -4 9 -1 6 7 -3 8 4 19 16 26
23 13 39 7 17 -6z m-1482 -22 c-21 -13 -28 -11 -26 10 1 16 5 18 20 9 16 -8
17 -12 6 -19z m210 -14 c-14 -14 -16 -13 -16 15 0 28 2 29 16 15 14 -13 14
-17 0 -30z m1141 12 c0 -3 -9 -7 -21 -10 -15 -4 -19 -2 -15 10 3 8 6 19 6 25
0 5 7 3 15 -6 8 -8 15 -17 15 -19z m-1270 9 c0 -15 -30 -50 -37 -43 -6 7 19
57 29 57 4 0 8 -6 8 -14z m103 -17 c-5 -16 -8 -18 -15 -7 -7 9 -8 7 -3 -8 3
-13 -1 -26 -10 -34 -8 -7 -15 -19 -15 -26 0 -8 -4 -14 -10 -14 -5 0 -10 -7
-10 -16 0 -8 -4 -12 -10 -9 -14 9 -13 45 2 45 25 0 -1 11 -37 15 -29 4 -35 2
-27 -7 13 -17 10 -60 -5 -65 -8 -3 -10 4 -7 21 2 13 0 28 -6 31 -28 18 20 50
51 34 12 -6 27 2 55 30 42 41 55 44 47 10z m112 22 c-3 -5 -1 -12 5 -16 13 -8
13 -25 0 -25 -5 0 -10 7 -10 15 0 8 -4 15 -10 15 -5 0 -10 5 -10 10 0 6 7 10
16 10 8 0 13 -4 9 -9z m55 -1 c0 -5 -5 -10 -11 -10 -5 0 -7 5 -4 10 3 6 8 10
11 10 2 0 4 -4 4 -10z m67 -12 c-3 -8 -6 -5 -6 6 -1 11 2 17 5 13 3 -3 4 -12
1 -19z m1408 12 c3 -5 1 -10 -4 -10 -6 0 -11 5 -11 10 0 6 2 10 4 10 3 0 8 -4
11 -10z m-1695 -4 c0 -2 -9 -6 -20 -9 -11 -3 -20 -1 -20 4 0 5 9 9 20 9 11 0
20 -2 20 -4z m1524 -11 c3 -8 1 -15 -4 -15 -6 0 -10 7 -10 15 0 8 2 15 4 15 2
0 6 -7 10 -15z m116 -5 c0 -5 -2 -10 -4 -10 -3 0 -8 5 -11 10 -3 6 -1 10 4 10
6 0 11 -4 11 -10z m-1955 -18 c-3 -3 -11 0 -18 7 -9 10 -8 11 6 5 10 -3 15 -9
12 -12z m209 3 c3 -9 0 -15 -8 -15 -7 0 -13 7 -13 15 0 8 4 15 8 15 4 0 9 -7
13 -15z m96 11 c0 -2 -8 -10 -17 -17 -16 -13 -17 -12 -4 4 13 16 21 21 21 13z
m1495 -13 c2 -7 15 -14 27 -14 21 -1 21 -2 3 -6 -11 -3 -31 -15 -44 -26 l-24
-22 18 28 c10 15 16 29 14 30 -2 2 -15 8 -29 14 l-25 11 27 -2 c15 0 30 -7 33
-13z m-1705 -14 c0 -5 -7 -9 -15 -9 -8 0 -15 7 -15 15 0 9 6 12 15 9 8 -4 15
-10 15 -15z m1535 -8 c10 14 15 17 12 7 -3 -9 -3 -19 1 -21 4 -2 2 -2 -5 -1
-6 2 -13 -1 -15 -7 -6 -17 -58 15 -58 36 1 18 3 17 24 -9 l23 -28 18 23z
m-1165 -18 c0 -7 -6 -10 -14 -7 -8 3 -12 13 -9 25 5 16 8 18 14 7 5 -7 9 -18
9 -25z m110 26 c0 -5 -4 -8 -9 -5 -5 4 -12 0 -14 -6 -3 -8 -6 -6 -6 5 -1 9 6
17 14 17 8 0 15 -5 15 -11z m954 -31 c8 -6 8 -8 -1 -8 -15 0 -35 35 -25 45 4
4 9 -1 11 -12 2 -10 8 -21 15 -25z m231 32 c3 -5 1 -10 -4 -10 -6 0 -11 5 -11
10 0 6 2 10 4 10 3 0 8 -4 11 -10z m-1592 -22 c6 -21 5 -22 -7 -5 -9 11 -20
15 -31 10 -13 -4 -16 -3 -11 5 12 20 43 13 49 -10z m1877 -8 c0 -5 -4 -10 -9
-10 -6 0 -13 5 -16 10 -3 6 1 10 9 10 9 0 16 -4 16 -10z m-1933 -7 c-4 -3 -2
-12 5 -20 6 -7 8 -16 4 -20 -3 -3 -6 -1 -6 5 0 7 -7 12 -15 12 -17 0 -20 -17
-5 -22 7 -2 6 -9 -2 -18 -7 -8 -12 -13 -11 -11 1 2 -2 12 -8 22 -7 14 -5 24 8
39 10 11 22 20 27 20 5 0 6 -3 3 -7z m273 -15 c0 -18 -2 -20 -9 -8 -6 8 -7 18
-5 22 9 14 14 9 14 -14z m1455 2 c3 -5 1 -10 -4 -10 -6 0 -11 5 -11 10 0 6 2
10 4 10 3 0 8 -4 11 -10z m-212 -67 c-28 -27 -33 -28 -33 -8 0 8 7 15 15 15
17 0 20 16 5 25 -8 5 -7 11 1 21 10 12 14 11 24 -8 10 -20 8 -26 -12 -45z
m377 63 c0 -3 -4 -8 -10 -11 -5 -3 -10 -1 -10 4 0 6 5 11 10 11 6 0 10 -2 10
-4z m-1859 -29 c-10 -9 -11 -8 -5 6 3 10 9 15 12 12 3 -3 0 -11 -7 -18z m59 1
c0 -6 -6 -5 -15 2 -8 7 -15 14 -15 16 0 2 7 1 15 -2 8 -4 15 -11 15 -16z
m1144 -3 c54 -32 155 -136 188 -195 14 -25 31 -66 38 -92 7 -27 16 -48 19 -48
4 0 6 -16 6 -35 -1 -19 1 -35 5 -35 8 0 -17 -195 -29 -232 -7 -19 -7 -28 0
-28 6 0 1 -14 -11 -30 -12 -17 -23 -38 -24 -46 -1 -9 -8 -19 -15 -23 -7 -5
-12 -11 -12 -15 3 -14 -66 -90 -119 -132 l-55 -44 -68 71 c-53 54 -79 91 -112
162 -98 207 -96 395 7 601 31 64 102 146 126 146 7 0 33 -11 56 -25z m-1394
-7 c0 -16 -3 -19 -11 -11 -6 6 -8 16 -5 22 11 17 16 13 16 -11z m1867 -8 c-26
-22 -41 -16 -25 9 6 11 19 16 29 14 17 -5 17 -7 -4 -23z m103 20 c0 -3 -13
-11 -29 -18 -21 -9 -28 -18 -24 -29 5 -13 3 -13 -14 -5 -11 6 -23 8 -27 5 -3
-3 -6 -1 -6 6 0 7 6 11 13 8 7 -3 22 2 32 10 17 12 18 15 5 23 -11 7 -6 9 17
7 18 -1 33 -4 33 -7z m135 -9 c-3 -6 -11 -11 -17 -11 -6 0 -6 6 2 15 14 17 26
13 15 -4z m-465 -3 c0 -11 -28 -10 -35 1 -3 6 4 9 15 8 11 -1 20 -5 20 -9z
m-1140 -6 c0 -13 -12 -22 -22 -16 -10 6 -1 24 13 24 5 0 9 -4 9 -8z m-190 -10
c0 -11 -70 -35 -78 -27 -9 9 20 26 36 20 6 -2 12 0 12 5 0 6 7 10 15 10 8 0
15 -4 15 -8z m42 -1 c-7 -4 -12 -14 -10 -21 2 -8 -6 -15 -17 -17 -11 -1 -14 0
-7 3 6 3 12 14 12 25 0 11 7 19 18 19 13 0 14 -2 4 -9z m68 -11 c0 -11 -2 -20
-4 -20 -2 0 -6 9 -9 20 -3 11 -1 20 4 20 5 0 9 -9 9 -20z m1400 0 c0 -11 -4
-20 -10 -20 -5 0 -10 9 -10 20 0 11 5 20 10 20 6 0 10 -9 10 -20z m160 5 c0
-9 -9 -15 -22 -15 -21 0 -21 0 -2 15 24 18 24 18 24 0z m47 -17 c-3 -7 -5 -2
-5 12 0 14 2 19 5 13 2 -7 2 -19 0 -25z m-2063 -3 c3 -8 1 -15 -4 -15 -6 0
-10 7 -10 15 0 8 2 15 4 15 2 0 6 -7 10 -15z m1776 -6 c0 -5 -9 -9 -20 -9 -19
0 -26 11 -14 23 8 8 34 -3 34 -14z m-1599 1 c5 0 9 -4 9 -10 0 -14 -13 -12
-36 6 -17 14 -17 15 -1 10 10 -3 23 -6 28 -6z m1719 0 c12 -8 11 -10 -7 -10
-13 0 -23 5 -23 10 0 13 11 13 30 0z m-1677 -25 c-23 -32 -36 -32 -21 0 6 14
17 25 25 25 11 0 10 -6 -4 -25z m214 3 c-3 -8 -6 -5 -6 6 -1 11 2 17 5 13 3
-3 4 -12 1 -19z m1605 13 c-8 -4 -14 -12 -15 -17 -2 -12 -40 -48 -55 -51 -7
-2 -12 2 -12 7 0 6 7 10 15 10 14 0 42 40 28 40 -15 0 22 20 37 20 12 0 12 -2
2 -9z m93 -20 c-3 -12 -14 -21 -23 -21 -16 1 -15 2 1 11 9 5 17 17 17 26 0 9
3 14 6 10 3 -3 3 -15 -1 -26z m-2021 4 c-4 -8 -10 -12 -15 -9 -11 6 -2 24 11
24 5 0 7 -7 4 -15z m1976 11 c0 -3 -4 -8 -10 -11 -5 -3 -10 -1 -10 4 0 6 5 11
10 11 6 0 10 -2 10 -4z m-1940 -21 c5 3 12 0 16 -6 4 -8 3 -9 -4 -5 -7 4 -12
3 -12 -2 0 -6 7 -13 16 -16 11 -4 14 -13 11 -27 -4 -16 -2 -19 11 -14 12 4 14
3 6 -5 -15 -15 -44 -1 -44 22 0 12 -4 17 -12 12 -8 -5 -9 -2 -5 9 3 9 2 19 -4
22 -5 4 -6 11 -2 18 5 8 8 8 11 -1 2 -7 8 -10 12 -7z m135 -12 c-9 -36 -13
-39 -28 -23 -10 10 -9 11 2 5 11 -6 13 -2 9 19 -4 18 -1 26 9 26 12 0 13 -7 8
-27z m1588 7 c3 -11 1 -18 -4 -14 -5 3 -9 12 -9 20 0 20 7 17 13 -6z m52 10
c3 -5 12 -7 20 -4 12 5 12 1 2 -20 -10 -22 -13 -23 -21 -8 -5 9 -16 23 -24 30
-14 11 -14 12 0 12 9 0 19 -4 23 -10z m-156 -38 c-3 -34 1 -41 19 -35 15 6 15
5 4 -10 -19 -22 -55 -1 -48 28 3 11 6 26 6 33 0 7 5 10 10 7 6 -4 10 -14 9
-23z m308 6 c-3 -8 -6 -5 -6 6 -1 11 2 17 5 13 3 -3 4 -12 1 -19z m-1733 -3
c-4 -8 -8 -15 -10 -15 -2 0 -4 7 -4 15 0 8 4 15 10 15 5 0 7 -7 4 -15z m40 1
c-10 -8 -21 -12 -24 -10 -5 6 21 24 34 24 6 0 1 -6 -10 -14z m105 -13 c-8 -9
-16 -10 -22 -4 -13 13 0 31 19 24 11 -4 12 -8 3 -20z m1321 13 c0 -11 -19 -15
-25 -6 -3 5 1 10 9 10 9 0 16 -2 16 -4z m64 -29 c9 -6 -7 -5 -43 2 -2 1 3 8
10 17 11 13 14 13 18 3 2 -8 9 -17 15 -22z m266 7 c0 -8 5 -14 12 -14 6 0 8
-3 5 -6 -4 -4 -13 -2 -20 4 -8 7 -17 9 -20 5 -4 -3 -7 0 -7 9 0 8 3 18 6 21
10 9 24 -2 24 -19z m-84 7 c-4 -5 0 -12 6 -14 7 -3 3 -6 -9 -6 -25 -1 -31 14
-10 22 18 8 19 8 13 -2z m134 5 c0 -3 -4 -8 -10 -11 -5 -3 -10 -1 -10 4 0 6 5
11 10 11 6 0 10 -2 10 -4z m-1869 -19 c-1 -12 -15 -9 -19 4 -3 6 1 10 8 8 6
-3 11 -8 11 -12z m1582 -7 c-3 -11 -9 -20 -13 -20 -5 0 -6 9 -3 20 3 11 9 20
13 20 5 0 6 -9 3 -20z m60 3 c-7 -2 -19 -2 -25 0 -7 3 -2 5 12 5 14 0 19 -2
13 -5z m-1838 -13 c-3 -5 0 -10 7 -10 9 0 9 -3 -2 -10 -8 -5 -11 -10 -7 -10 5
0 5 -5 1 -12 -5 -8 -10 -6 -14 8 -8 22 -2 44 12 44 5 0 6 -4 3 -10z m250 0
c-3 -6 1 -13 9 -16 9 -3 16 -11 16 -16 0 -7 -5 -6 -14 1 -7 6 -21 9 -30 5 -10
-4 -16 -1 -16 9 0 9 8 18 18 20 9 3 18 5 20 6 2 0 0 -4 -3 -9z m71 -1 c3 -6 1
-15 -5 -20 -6 -5 -9 -6 -6 -3 3 4 0 13 -6 21 -8 9 -8 13 -1 13 6 0 14 -5 18
-11z m-209 -14 c0 -8 -6 -15 -14 -15 -17 0 -17 17 0 23 6 3 12 6 13 6 0 1 1
-6 1 -14z m1700 -10 c-15 -16 -22 -11 -13 10 3 9 10 13 16 10 6 -4 5 -11 -3
-20z m263 15 c0 -5 -5 -10 -11 -10 -5 0 -7 5 -4 10 3 6 8 10 11 10 2 0 4 -4 4
-10z m-138 -22 c-7 -7 -12 -8 -12 -2 0 14 12 26 19 19 2 -3 -1 -11 -7 -17z
m-1748 -8 c-22 -9 -29 -6 -20 9 4 6 14 7 23 4 15 -6 14 -7 -3 -13z m169 5 c-3
-9 -8 -14 -10 -11 -3 3 -2 9 2 15 9 16 15 13 8 -4z m1397 11 c0 -2 -7 -6 -15
-10 -8 -3 -15 -1 -15 4 0 6 7 10 15 10 8 0 15 -2 15 -4z m122 -20 c3 -16 1
-23 -7 -19 -7 2 -11 13 -8 24 7 25 10 24 15 -5z m-214 2 c14 -14 16 -28 2 -28
-5 0 -14 9 -20 20 -12 22 -1 27 18 8z m-1918 -8 c0 -5 -4 -10 -10 -10 -5 0
-10 5 -10 10 0 6 5 10 10 10 6 0 10 -4 10 -10z m1960 0 c0 -5 -5 -10 -11 -10
-5 0 -7 5 -4 10 3 6 8 10 11 10 2 0 4 -4 4 -10z m290 4 c0 -14 -21 -42 -36
-48 -12 -4 -15 -2 -10 9 3 10 -1 15 -12 16 -11 0 -12 2 -4 6 7 3 19 0 26 -6
10 -9 15 -8 19 3 4 9 -1 17 -11 19 -12 3 -11 5 6 6 12 0 22 -2 22 -5z m-2283
-19 c0 -10 -6 -14 -14 -10 -8 3 -20 5 -26 6 -7 0 -3 4 8 9 29 12 32 12 32 -5z
m371 -5 c-7 -10 -14 -17 -17 -15 -4 4 18 35 25 35 2 0 -1 -9 -8 -20z m1972 12
c0 -14 -11 -21 -26 -15 -8 3 -11 9 -8 14 7 11 34 12 34 1z m-2448 -20 c-20 -6
-14 -21 7 -15 28 7 33 -12 10 -38 l-21 -24 5 23 c4 14 0 22 -9 22 -8 0 -14 8
-14 18 0 23 10 33 23 25 8 -5 7 -8 -1 -11z m579 -4 c-5 -13 -17 -24 -27 -25
-17 -3 -17 -2 1 6 17 8 14 10 -15 10 -24 1 -31 -2 -21 -8 15 -10 7 -31 -12
-30 -8 0 -7 3 2 6 9 4 10 7 2 13 -22 13 -2 37 28 32 16 -2 32 1 35 7 12 19 16
12 7 -11z m1629 6 c0 -2 -12 -4 -26 -4 -14 0 -23 4 -20 9 6 8 46 4 46 -5z
m-2040 -9 c-7 -9 -15 -13 -19 -10 -3 3 1 10 9 15 21 14 24 12 10 -5z m560 5
c0 -5 -7 -10 -16 -10 -8 0 -12 5 -9 10 3 6 10 10 16 10 5 0 9 -4 9 -10z m1532
-28 c-5 -13 -7 -12 -13 4 -5 13 -8 14 -8 4 -1 -13 -2 -13 -11 0 -16 25 -11 30
14 19 16 -8 22 -17 18 -27z m-185 21 c-4 -3 -2 -12 4 -19 6 -7 13 -28 16 -46
5 -33 23 -64 23 -40 0 7 4 12 9 12 5 0 7 -9 4 -20 -3 -11 -12 -20 -19 -20 -8
0 -14 -9 -14 -19 0 -24 16 -36 23 -19 3 7 6 9 6 3 1 -22 -37 -54 -59 -50 -13
3 -20 0 -17 -8 6 -18 57 -19 57 -1 0 8 5 14 11 14 7 0 9 -8 4 -22 -3 -13 -7
-30 -7 -38 0 -8 -6 -22 -12 -30 -6 -8 -17 -25 -24 -37 -11 -21 -10 -23 13 -23
16 0 25 6 25 16 0 8 5 12 10 9 16 -10 12 -21 -16 -35 -19 -11 -24 -20 -21 -37
2 -12 0 -20 -4 -17 -5 3 -9 0 -9 -6 0 -7 -9 -23 -19 -36 -11 -14 -17 -33 -14
-44 3 -11 0 -20 -5 -20 -6 0 -16 -9 -22 -20 -9 -16 -8 -18 5 -14 26 10 7 -20
-24 -39 -16 -9 -36 -32 -45 -51 -9 -19 -22 -36 -29 -39 -9 -3 -9 -8 2 -20 9
-11 10 -17 2 -17 -6 0 -11 4 -11 9 0 5 -8 7 -18 4 -11 -2 -18 -13 -18 -26 1
-13 -4 -21 -12 -19 -6 1 -11 -1 -11 -5 4 -22 -3 -32 -23 -35 -19 -2 -22 -8
-20 -30 2 -15 -2 -35 -8 -45 -11 -17 -11 -17 -6 0 3 9 1 17 -5 17 -7 0 -8 12
-4 30 9 42 -17 39 -41 -5 -6 -11 -23 -21 -38 -23 -14 -2 -26 -8 -26 -13 0 -6
-11 -2 -24 8 -18 14 -22 22 -15 36 7 12 6 17 -5 17 -8 0 -17 -4 -20 -9 -9 -14
4 -41 19 -41 8 0 17 -5 21 -11 5 -8 -3 -10 -25 -7 -17 2 -31 1 -31 -4 0 -4 7
-8 15 -8 8 0 15 -6 15 -14 0 -9 -9 -14 -20 -13 -11 1 -20 4 -20 7 0 8 -41 5
-65 -5 -24 -11 -37 -23 -53 -50 -10 -17 -11 -15 -5 15 8 46 33 89 49 83 6 -2
15 0 18 5 3 5 -6 9 -20 9 -14 0 -30 5 -35 10 -7 7 -1 10 17 11 15 0 33 8 41
18 14 19 40 27 48 14 8 -13 45 1 56 21 5 11 17 19 26 19 9 0 14 3 10 6 -7 8
17 34 32 34 6 0 11 5 11 10 0 6 5 10 11 10 7 0 18 8 25 18 7 9 17 17 22 17 12
0 52 44 52 57 0 4 7 8 15 8 8 0 15 5 15 10 0 6 8 10 18 11 15 0 15 1 -2 8 -14
5 -16 10 -8 15 14 8 92 166 92 185 0 7 3 10 8 8 4 -3 8 11 10 31 4 56 7 69 21
86 9 11 10 16 2 16 -16 0 -14 35 3 50 8 6 13 17 11 23 -2 7 -6 25 -9 40 -4 16
-11 25 -17 21 -7 -4 -7 1 0 15 7 11 19 21 29 21 16 -1 16 -1 -1 -11 -16 -10
-16 -12 0 -39 9 -16 20 -27 24 -24 4 2 7 -9 7 -26 -1 -17 3 -34 7 -38 4 -4 6
2 3 14 -3 12 -1 29 4 38 6 10 5 16 -2 16 -5 0 -10 5 -10 11 0 6 7 9 15 5 17
-6 19 2 6 23 -5 7 -14 10 -20 7 -15 -10 -14 7 2 23 10 11 9 14 -1 18 -6 3 -10
9 -6 14 3 5 0 9 -5 9 -6 0 -11 5 -11 11 0 5 5 7 10 4 6 -3 10 -1 10 4 0 6 5
11 12 11 6 0 8 -3 5 -7z m-1757 -13 c0 -5 -2 -10 -4 -10 -2 0 -12 -3 -20 -6
-12 -5 -15 -2 -10 10 7 17 34 22 34 6z m115 -19 c-6 -5 -25 10 -25 20 0 5 6 4
14 -3 8 -7 12 -15 11 -17z m180 19 c3 -6 -1 -7 -9 -4 -18 7 -21 14 -7 14 6 0
13 -4 16 -10z m1711 1 c-3 -4 6 -13 20 -19 20 -10 23 -15 15 -31 -6 -10 -8
-21 -5 -24 3 -3 0 -8 -7 -13 -8 -4 -10 -3 -5 4 4 7 3 12 -2 12 -6 0 -12 -7
-16 -15 -3 -8 -10 -15 -16 -15 -6 0 -2 13 9 29 25 35 27 49 4 47 -10 0 -19 7
-21 17 -2 10 3 17 13 17 9 0 14 -4 11 -9z m-2206 -5 c0 -2 -7 -9 -15 -16 -13
-11 -14 -10 -9 4 5 14 24 23 24 12z m2050 -5 c0 -6 -4 -13 -10 -16 -5 -3 -10
1 -10 9 0 9 5 16 10 16 6 0 10 -4 10 -9z m218 -22 c-3 -8 -7 -3 -11 10 -4 17
-3 21 5 13 5 -5 8 -16 6 -23z m-2024 0 c-17 -6 -16 -7 6 -11 l25 -5 -25 0
c-49 -1 -52 -2 -45 -23 4 -11 2 -20 -4 -20 -18 0 -12 32 10 56 13 13 28 20 37
17 13 -6 13 -8 -4 -14z m112 -5 c-4 -9 -9 -15 -11 -12 -3 3 -3 13 1 22 4 9 9
15 11 12 3 -3 3 -13 -1 -22z m1551 20 c-3 -3 -12 -4 -19 -1 -8 3 -5 6 6 6 11
1 17 -2 13 -5z m403 -4 c0 -5 -2 -10 -4 -10 -3 0 -8 5 -11 10 -3 6 -1 10 4 10
6 0 11 -4 11 -10z m80 0 c0 -5 -7 -7 -15 -4 -8 4 -15 8 -15 10 0 2 7 4 15 4 8
0 15 -4 15 -10z m-2560 -4 c0 -3 -4 -8 -10 -11 -5 -3 -10 -1 -10 4 0 6 5 11
10 11 6 0 10 -2 10 -4z m630 -11 c0 -1 -9 -12 -20 -25 -11 -13 -20 -19 -20
-14 0 6 5 15 12 22 9 9 8 12 -7 12 -16 0 -17 2 -6 9 12 8 41 5 41 -4z m1710
-1 c0 -8 -4 -12 -10 -9 -5 3 -10 10 -10 16 0 5 5 9 10 9 6 0 10 -7 10 -16z
m-2300 1 c0 -2 -9 -13 -21 -23 l-20 -20 45 -22 c48 -23 63 -37 51 -48 -3 -3
-10 0 -14 7 -10 15 -43 11 -49 -7 -2 -8 2 -10 14 -5 11 4 15 3 11 -4 -4 -6
-18 -10 -33 -10 -14 0 -21 3 -15 7 7 3 9 14 5 23 -5 13 -2 16 11 11 15 -6 15
-4 4 14 -7 11 -17 20 -23 19 -17 -3 -18 30 -1 47 15 15 35 22 35 11z m80 -4
c0 -5 7 -17 16 -26 16 -15 16 -18 0 -33 -15 -15 -16 -15 -16 0 0 9 -4 18 -9
20 -4 2 -12 13 -15 26 -6 16 -3 22 8 22 9 0 16 -4 16 -9z m2170 0 c0 -6 -4
-13 -10 -16 -5 -3 -10 1 -10 9 0 9 5 16 10 16 6 0 10 -4 10 -9z m-2090 -32 c0
-10 -3 -19 -7 -19 -5 0 -8 11 -8 24 0 13 3 22 8 19 4 -2 7 -13 7 -24z m500 21
c0 -5 -4 -10 -9 -10 -6 0 -13 5 -16 10 -3 6 1 10 9 10 9 0 16 -4 16 -10z
m1820 0 c0 -5 -9 -10 -20 -10 -11 0 -20 -4 -20 -10 0 -16 -26 -11 -41 8 -13
15 -12 16 4 3 10 -8 17 -9 17 -3 0 9 9 13 53 21 4 0 7 -3 7 -9z m-1951 -4 c-2
-2 -20 -11 -39 -20 l-35 -17 25 20 c14 11 31 21 39 21 8 0 12 -2 10 -4z m191
-16 c0 -5 -7 -7 -15 -4 -8 4 -15 8 -15 10 0 2 7 4 15 4 8 0 15 -4 15 -10z
m1587 -8 c-12 -13 -14 -21 -6 -29 7 -7 5 -12 -6 -17 -9 -3 -13 -2 -10 4 3 6 2
10 -3 10 -6 0 -13 7 -16 16 -3 8 -2 13 3 10 5 -3 11 1 15 9 3 8 13 15 22 15
16 0 16 -1 1 -18z m-130 -24 c-3 -8 -6 -5 -6 6 -1 11 2 17 5 13 3 -3 4 -12 1
-19z m-1631 3 c-4 -5 -1 -11 6 -13 7 -3 2 -7 -10 -10 -17 -5 -22 -2 -22 13 0
11 7 19 16 19 8 0 13 -4 10 -9z m2141 3 c-3 -3 -12 -4 -19 -1 -8 3 -5 6 6 6
11 1 17 -2 13 -5z m-2241 -16 c36 -31 45 -41 39 -47 -4 -3 -11 2 -16 12 -6 9
-16 17 -23 17 -8 0 -16 7 -20 15 -7 18 0 19 20 3z m165 -7 c-10 -6 -10 -13 -2
-29 8 -15 8 -21 -2 -25 -7 -3 -13 3 -13 12 -1 9 -4 23 -8 33 -5 11 -2 17 11
20 23 5 31 -1 14 -11z m1799 9 c-13 -8 -13 -10 2 -10 9 0 19 5 21 10 3 6 4 5
3 -2 -1 -7 -16 -15 -33 -19 -29 -6 -30 -5 -20 12 7 11 19 19 27 19 13 0 13 -1
0 -10z m-150 -12 c0 -11 -22 -10 -39 1 -10 7 -7 9 12 8 15 -1 27 -5 27 -9z
m-1890 -31 c0 -4 -6 -2 -14 5 -8 7 -12 17 -9 22 5 8 23 -12 23 -27z m2430 23
c0 -5 -2 -10 -4 -10 -3 0 -8 5 -11 10 -3 6 -1 10 4 10 6 0 11 -4 11 -10z m113
-10 c-16 -16 -47 -15 -51 1 -2 12 4 15 28 11 17 -2 28 -8 23 -12z m-2743 0 c0
-5 -7 -10 -16 -10 -8 0 -12 5 -9 10 3 6 10 10 16 10 5 0 9 -4 9 -10z m2166 3
c-3 -4 6 -12 21 -18 l28 -12 -32 -1 c-24 0 -30 3 -28 16 5 23 4 22 12 22 3 0
3 -3 -1 -7z m166 -15 c-7 -7 -12 -8 -12 -2 0 14 12 26 19 19 2 -3 -1 -11 -7
-17z m-2392 -3 c0 -8 -4 -15 -10 -15 -5 0 -10 7 -10 15 0 8 5 15 10 15 6 0 10
-7 10 -15z m2300 6 c0 -6 -4 -13 -10 -16 -5 -3 -10 1 -10 9 0 9 5 16 10 16 6
0 10 -4 10 -9z m-1750 -5 c0 -16 -14 -36 -26 -36 -16 0 -16 2 -8 24 5 14 34
24 34 12z m1610 -12 c0 -2 -7 -4 -15 -4 -8 0 -15 4 -15 10 0 5 7 7 15 4 8 -4
15 -8 15 -10z m-1885 -14 c-4 -6 7 -10 24 -10 17 0 31 -5 31 -10 0 -6 -11 -8
-25 -4 -15 4 -25 2 -25 -5 0 -6 -7 -11 -16 -11 -11 0 -14 -5 -9 -17 4 -10 9
-27 11 -38 2 -11 -2 -8 -8 8 -7 15 -18 27 -26 27 -11 0 -11 3 2 15 8 8 19 15
25 15 6 0 11 5 11 10 0 6 -5 10 -11 10 -5 0 -7 5 -4 10 3 6 11 10 16 10 6 0 7
-4 4 -10z m178 -4 c4 -10 1 -13 -8 -9 -8 3 -12 9 -9 14 7 12 11 11 17 -5z
m1817 -16 c-6 -11 -13 -20 -15 -20 -2 0 -3 9 -2 20 1 11 7 20 14 20 11 0 11
-5 3 -20z m530 8 c0 -6 -3 -8 -7 -5 -3 4 -12 -1 -20 -11 -13 -15 -13 -15 -3 6
11 23 30 30 30 10z m-2820 -8 c0 -5 -2 -10 -4 -10 -3 0 -8 5 -11 10 -3 6 -1
10 4 10 6 0 11 -4 11 -10z m2200 6 c0 -3 -4 -8 -10 -11 -5 -3 -10 -1 -10 4 0
6 5 11 10 11 6 0 10 -2 10 -4z m-1976 -27 c-6 -11 -24 -2 -24 11 0 5 7 7 15 4
8 -4 12 -10 9 -15z m383 -11 c-3 -7 -5 -2 -5 12 0 14 2 19 5 13 2 -7 2 -19 0
-25z m1817 24 c3 -5 -1 -9 -9 -9 -8 0 -12 4 -9 9 3 4 7 8 9 8 2 0 6 -4 9 -8z
m-2440 -10 c3 -5 -1 -9 -9 -9 -8 0 -15 4 -15 9 0 4 4 8 9 8 6 0 12 -4 15 -8z
m66 4 c0 -3 -4 -8 -10 -11 -5 -3 -10 -1 -10 4 0 6 5 11 10 11 6 0 10 -2 10 -4z
m2204 -3 c-5 -5 -12 -12 -16 -18 -4 -6 -8 -2 -8 8 0 9 7 17 17 17 9 0 12 -3 7
-7z m69 -5 c7 -22 -4 -47 -19 -41 -19 7 -18 23 2 23 14 0 14 3 4 15 -8 9 -8
15 -2 15 6 0 12 -6 15 -12z m-1988 -8 c8 -13 -13 -40 -29 -39 -7 0 -6 2 2 6 6
2 12 11 12 19 0 9 -5 12 -12 8 -7 -4 -8 -3 -4 4 9 15 23 15 31 2z m153 3 c-10
-2 -18 -11 -18 -19 0 -8 -8 -14 -18 -14 -10 0 -23 -5 -29 -11 -7 -7 -12 -6
-16 5 -3 8 1 20 10 28 13 10 17 10 20 1 4 -10 8 -9 20 2 8 8 22 14 31 14 15
-1 15 -2 0 -6z m1592 -9 c0 -8 -5 -12 -10 -9 -6 4 -8 11 -5 16 9 14 15 11 15
-7z m117 -26 c-3 -7 -5 -2 -5 12 0 14 2 19 5 13 2 -7 2 -19 0 -25z m-1627 12
c0 -5 -7 -10 -15 -10 -8 0 -15 -6 -15 -12 0 -9 -4 -8 -10 2 -7 11 -4 17 13 22
12 3 23 6 25 7 1 1 2 -3 2 -9z m2230 -51 c-18 -19 -36 -13 -19 7 9 11 9 14 0
14 -7 0 -9 5 -6 10 3 6 1 10 -4 10 -6 0 -11 5 -11 11 0 6 12 0 28 -12 25 -21
26 -25 12 -40z m-2840 31 c0 -11 -4 -20 -8 -20 -4 0 -8 9 -8 20 0 11 4 20 8
20 4 0 8 -9 8 -20z m550 -18 c0 -15 -2 -15 -10 -2 -13 20 -13 33 0 25 6 -3 10
-14 10 -23z m1767 15 c0 -8 -6 -14 -14 -14 -7 0 -13 6 -13 14 0 7 6 13 13 13
8 0 14 -6 14 -13z m-1917 -1 c0 -3 -4 -8 -10 -11 -5 -3 -10 -1 -10 4 0 6 5 11
10 11 6 0 10 -2 10 -4z m-310 -16 c0 -5 -4 -10 -10 -10 -5 0 -10 5 -10 10 0 6
5 10 10 10 6 0 10 -4 10 -10z m73 -4 c23 -18 22 -21 -9 -24 -19 -1 -25 2 -21
12 3 8 1 17 -6 20 -7 3 -6 5 3 5 8 0 23 -6 33 -13z m273 -12 c-4 -9 -9 -15
-11 -12 -3 3 -3 13 1 22 4 9 9 15 11 12 3 -3 3 -13 -1 -22z m69 -3 c-5 -17
-10 -19 -24 -11 -10 5 -21 6 -25 3 -3 -3 -6 1 -6 10 0 20 16 23 24 5 3 -9 8
-8 16 5 15 23 24 15 15 -12z m98 14 c-3 -9 -8 -14 -10 -11 -3 3 -2 9 2 15 9
16 15 13 8 -4z m33 -12 c-10 -10 -19 5 -10 18 6 11 8 11 12 0 2 -7 1 -15 -2
-18z m1709 7 c-3 -5 -12 -10 -20 -10 -7 0 -16 -8 -19 -17 -5 -12 -9 -14 -18
-5 -15 15 -2 29 32 35 14 2 26 5 28 6 2 0 0 -3 -3 -9z m45 -10 c0 -10 -36 -50
-45 -50 -3 0 1 14 10 30 15 29 35 40 35 20z m-1846 -11 c-3 -6 -1 -14 5 -18 8
-5 8 -14 -2 -34 -14 -31 -31 -37 -22 -7 7 21 -10 28 -18 8 -4 -10 -6 -10 -6 0
-1 8 8 16 19 19 16 4 18 9 9 24 -8 15 -6 19 6 19 9 0 13 -5 9 -11z m1616 -9
c0 -5 -2 -10 -4 -10 -3 0 -8 5 -11 10 -3 6 -1 10 4 10 6 0 11 -4 11 -10z m133
-43 c-3 -5 3 -15 13 -22 18 -13 18 -14 -1 -9 -25 6 -75 -11 -75 -26 0 -6 4 -9
8 -6 4 2 14 0 22 -5 13 -8 12 -12 -4 -24 -11 -8 -16 -18 -13 -22 4 -3 19 4 33
18 25 23 26 23 15 2 -16 -31 -14 -53 7 -53 14 0 15 -2 2 -10 -8 -5 -22 -9 -30
-9 -9 0 -11 2 -3 5 7 3 9 12 6 20 -4 11 -10 8 -23 -13 -25 -42 -34 -84 -18
-95 9 -7 7 -8 -7 -6 -12 2 -19 11 -19 21 1 9 -5 17 -13 17 -11 0 -14 -7 -10
-21 3 -12 3 -18 0 -15 -4 3 -13 0 -21 -7 -11 -8 -14 -8 -9 0 4 6 3 14 -3 18
-6 4 -7 11 -4 17 4 6 -2 8 -17 4 -22 -6 -22 -5 6 18 17 14 24 26 17 26 -8 0
-10 5 -6 12 4 6 -5 3 -19 -8 -15 -10 -27 -25 -27 -31 0 -7 -4 -13 -8 -13 -5 0
-8 10 -7 23 1 15 8 21 21 19 15 -2 16 -1 5 6 -24 17 -1 35 39 29 28 -3 37 -1
37 10 0 9 -7 13 -18 10 -10 -3 -20 1 -23 8 -2 8 -15 11 -30 8 -14 -3 -26 -1
-26 4 0 10 57 9 67 -1 4 -3 17 1 29 9 15 9 25 11 29 5 4 -6 10 -8 15 -5 11 6
-10 45 -23 45 -4 0 -5 -4 -2 -10 3 -5 -1 -10 -10 -10 -22 0 -13 24 11 29 24 4
74 39 74 51 0 5 -6 7 -14 4 -8 -3 -17 -1 -21 5 -3 6 1 11 10 11 10 0 14 5 10
13 -4 6 2 1 13 -13 11 -13 18 -28 15 -33z m467 49 c0 -2 -7 -6 -15 -10 -8 -3
-15 -1 -15 4 0 6 7 10 15 10 8 0 15 -2 15 -4z m-2435 -15 c3 -5 1 -12 -5 -16
-5 -3 -10 1 -10 9 0 18 6 21 15 7z m1902 -13 c-3 -8 -6 -5 -6 6 -1 11 2 17 5
13 3 -3 4 -12 1 -19z m-1987 -4 c0 -2 -9 -8 -20 -14 -17 -9 -20 -8 -20 9 0 14
5 18 20 14 11 -3 20 -7 20 -9z m397 -1 c3 -7 -3 -9 -17 -6 -17 4 -19 2 -13
-13 7 -18 6 -18 -11 -2 -9 10 -15 22 -12 27 8 12 49 8 53 -6z m2178 -1 c3 -8
12 -11 21 -8 10 4 14 1 12 -6 -7 -19 -38 -22 -38 -4 0 22 -17 20 -23 -1 -3
-10 -4 -7 -4 8 1 27 22 35 32 11z m-2417 -9 c-20 -24 1 -27 22 -3 16 18 20 19
20 7 0 -24 -37 -42 -56 -26 -8 6 -14 7 -14 2 0 -5 -7 -10 -15 -10 -8 0 -15 4
-15 9 0 4 6 8 14 8 8 0 16 6 19 13 3 8 12 14 21 14 12 0 13 -3 4 -14z m1821
-25 c1 -5 -8 -8 -19 -8 -23 0 -26 14 -7 34 10 12 13 11 19 -3 4 -9 7 -19 7
-23z m501 17 c0 -2 -7 -5 -15 -9 -9 -3 -15 0 -15 9 0 9 6 12 15 9 8 -4 15 -7
15 -9z m-2553 -43 c-3 -12 -5 -10 -6 6 0 13 -5 20 -11 17 -11 -7 -14 8 -3 19
10 10 25 -22 20 -42z m318 38 c-3 -5 -11 -10 -16 -10 -6 0 -7 5 -4 10 3 6 11
10 16 10 6 0 7 -4 4 -10z m1889 -5 c-4 -8 -10 -13 -14 -10 -5 3 -11 1 -15 -5
-3 -5 1 -10 9 -10 8 0 18 -4 21 -10 4 -6 -2 -7 -17 -1 -31 11 -35 38 -6 44 13
2 24 5 25 6 1 0 0 -6 -3 -14z m386 -16 c0 -6 -4 -7 -10 -4 -5 3 -10 11 -10 16
0 6 5 7 10 4 6 -3 10 -11 10 -16z m-2525 -10 c-10 -15 -25 -10 -19 6 4 8 10
12 15 9 5 -3 7 -10 4 -15z m1905 1 c22 14 34 12 21 -4 -7 -8 -8 -16 -4 -18 4
-3 3 -4 -3 -2 -6 1 -16 -2 -22 -8 -8 -8 -14 -5 -21 13 -5 13 -6 28 -3 33 3 5
8 2 11 -7 4 -12 10 -14 21 -7z m480 10 c0 -5 -5 -10 -11 -10 -5 0 -7 5 -4 10
3 6 8 10 11 10 2 0 4 -4 4 -10z m-2240 -26 c0 -2 -9 -4 -20 -4 -11 0 -20 4
-20 9 0 5 9 7 20 4 11 -3 20 -7 20 -9z m37 -6 c-3 -8 -6 -5 -6 6 -1 11 2 17 5
13 3 -3 4 -12 1 -19z m83 -15 c0 -7 -4 -13 -10 -13 -5 0 -7 7 -4 15 4 10 0 15
-12 15 -16 0 -16 2 -4 10 15 9 30 -4 30 -27z m64 31 c23 -9 20 -20 -6 -21 -13
0 -17 1 -9 4 11 5 11 7 0 14 -16 10 -8 12 15 3z m1726 -4 c0 -5 -7 -10 -16
-10 -8 0 -12 5 -9 10 3 6 10 10 16 10 5 0 9 -4 9 -10z m147 -12 c-3 -8 -6 -5
-6 6 -1 11 2 17 5 13 3 -3 4 -12 1 -19z m-117 8 c0 -3 -4 -8 -10 -11 -5 -3
-10 -1 -10 4 0 6 5 11 10 11 6 0 10 -2 10 -4z m-2120 -17 c0 -5 -4 -7 -10 -4
-5 3 -10 1 -10 -6 0 -7 -3 -10 -6 -6 -8 7 4 27 17 27 5 0 9 -5 9 -11z m52 -11
c-12 -12 -35 -1 -27 12 3 5 13 6 21 3 10 -4 12 -9 6 -15z m401 8 c4 -9 -3 -13
-23 -12 -21 1 -26 4 -18 14 14 16 35 15 41 -2z m2024 -2 c-3 -3 -12 -4 -19 -1
-8 3 -5 6 6 6 11 1 17 -2 13 -5z m91 -19 c-3 -3 -9 2 -12 12 -6 14 -5 15 5 6
7 -7 10 -15 7 -18z m-2443 -4 c-3 -6 -11 -8 -17 -5 -6 4 -5 9 3 15 16 10 23 4
14 -10z m126 10 c-9 -6 -11 -16 -7 -27 6 -15 4 -16 -5 -7 -14 14 -5 43 13 43
10 0 9 -3 -1 -9z m66 -23 c-3 -7 -5 -2 -5 12 0 14 2 19 5 13 2 -7 2 -19 0 -25z
m181 -4 c-10 -10 -28 6 -28 24 0 15 1 15 17 -1 9 -9 14 -19 11 -23z m1902 26
c0 -5 -5 -10 -11 -10 -5 0 -7 5 -4 10 3 6 8 10 11 10 2 0 4 -4 4 -10z m-2228
-32 c-7 -7 -12 -8 -12 -2 0 14 12 26 19 19 2 -3 -1 -11 -7 -17z m224 -19 l-16
-23 0 22 c0 12 5 22 11 22 5 0 7 6 3 13 -5 9 -4 9 6 0 10 -9 9 -16 -4 -34z
m1464 31 c0 -5 -4 -10 -9 -10 -6 0 -13 5 -16 10 -3 6 1 10 9 10 9 0 16 -4 16
-10z m307 -12 c-3 -8 -6 -5 -6 6 -1 11 2 17 5 13 3 -3 4 -12 1 -19z m-1710 -1
c11 4 14 2 9 -5 -4 -7 -16 -12 -26 -12 -14 0 -18 5 -13 17 4 10 8 12 10 6 3
-7 11 -9 20 -6z m1685 -5 c4 -15 1 -18 -18 -14 -13 2 -24 8 -24 13 0 5 7 6 15
3 8 -4 15 -1 15 5 0 17 7 13 12 -7z m-2142 -2 c0 -5 -2 -10 -4 -10 -3 0 -8 5
-11 10 -3 6 -1 10 4 10 6 0 11 -4 11 -10z m80 0 c0 -5 -2 -10 -4 -10 -3 0 -8
5 -11 10 -3 6 -1 10 4 10 6 0 11 -4 11 -10z m1830 6 c0 -3 -4 -8 -10 -11 -5
-3 -10 -1 -10 4 0 6 5 11 10 11 6 0 10 -2 10 -4z m-1940 -16 c0 -5 -5 -10 -11
-10 -5 0 -7 5 -4 10 3 6 8 10 11 10 2 0 4 -4 4 -10z m380 0 c0 -5 -4 -10 -10
-10 -5 0 -10 5 -10 10 0 6 5 10 10 10 6 0 10 -4 10 -10z m1865 0 c-3 -5 -14
-10 -23 -10 -15 0 -15 2 -2 10 20 13 33 13 25 0z m-2100 -10 c-3 -5 -11 -10
-16 -10 -6 0 -7 5 -4 10 3 6 11 10 16 10 6 0 7 -4 4 -10z m403 -7 c-20 -20
-66 -24 -72 -6 -3 7 1 10 9 7 8 -3 22 -1 32 5 10 6 25 11 33 11 12 0 11 -3 -2
-17z m-505 -6 c4 3 7 -1 7 -10 0 -22 -3 -21 -26 5 -12 14 -13 18 -3 10 9 -6
19 -9 22 -5z m67 3 c0 -5 -8 -10 -17 -10 -15 0 -16 2 -3 10 19 12 20 12 20 0z
m66 -32 c-9 -12 -16 -19 -16 -15 0 11 24 47 28 42 2 -2 -3 -14 -12 -27z m1724
28 c0 -2 -7 -6 -15 -10 -8 -3 -15 -1 -15 4 0 6 7 10 15 10 8 0 15 -2 15 -4z
m300 -4 c0 -5 -7 -9 -15 -9 -8 0 -12 4 -9 9 3 4 9 8 15 8 5 0 9 -4 9 -8z m-66
-17 c-7 -16 -24 -21 -24 -6 0 8 7 13 27 20 1 1 0 -6 -3 -14z m-1854 1 c0 -3
-4 -8 -10 -11 -5 -3 -10 -1 -10 4 0 6 5 11 10 11 6 0 10 -2 10 -4z m30 0 c0
-3 -4 -8 -10 -11 -5 -3 -10 -1 -10 4 0 6 5 11 10 11 6 0 10 -2 10 -4z m31 -19
c-10 -9 -11 -8 -5 6 3 10 9 15 12 12 3 -3 0 -11 -7 -18z m82 -44 c-8 -21 -25
-15 -18 7 9 29 -12 25 -40 -7 l-24 -28 -1 25 c-1 24 -1 24 -15 6 -15 -19 -15
-19 -15 2 0 17 6 22 25 22 19 0 23 -4 18 -17 -4 -10 -2 -14 4 -10 6 4 13 21
17 39 l7 33 24 -29 c13 -16 21 -35 18 -43z m161 51 c9 -24 7 -31 -4 -14 -8 12
-10 11 -10 -7 0 -17 6 -23 23 -24 17 -1 15 -3 -8 -8 -21 -5 -29 -12 -27 -24 2
-9 -2 -17 -8 -17 -13 0 -13 27 0 35 6 3 10 22 10 41 0 35 13 46 24 18z m-454
-30 c0 -14 7 -39 16 -55 8 -17 13 -33 10 -36 -9 -10 -37 19 -32 33 3 7 1 16
-4 19 -6 4 -7 17 -4 31 4 15 2 24 -6 24 -6 0 -8 5 -5 10 10 17 25 1 25 -26z
m398 18 c-10 -2 -18 -8 -18 -13 0 -5 -12 -8 -27 -8 -23 1 -24 2 -6 6 12 2 27
11 33 18 7 8 17 12 24 8 7 -5 5 -9 -6 -11z m1646 10 c3 -5 -1 -9 -9 -9 -8 0
-12 4 -9 9 3 4 7 8 9 8 2 0 6 -4 9 -8z m-314 -12 c0 -5 -4 -10 -10 -10 -5 0
-10 5 -10 10 0 6 5 10 10 10 6 0 10 -4 10 -10z m264 -5 c12 -9 16 -20 11 -32
-6 -15 -8 -15 -13 -3 -6 17 -22 30 -37 30 -5 -1 -3 -6 5 -13 8 -7 16 -19 18
-27 2 -11 -1 -11 -11 3 -8 9 -19 17 -26 17 -9 0 -9 5 -1 20 13 23 28 25 54 5z
m-2064 -10 c0 -8 -7 -15 -15 -15 -13 0 -14 3 -3 15 16 18 18 18 18 0z m110
-15 c0 -5 -5 -10 -11 -10 -5 0 -7 5 -4 10 3 6 8 10 11 10 2 0 4 -4 4 -10z
m307 -22 c-3 -8 -6 -5 -6 6 -1 11 2 17 5 13 3 -3 4 -12 1 -19z m50 16 c-3 -3
-12 -4 -19 -1 -8 3 -5 6 6 6 11 1 17 -2 13 -5z m1273 -19 c0 -15 -6 -25 -15
-25 -12 0 -13 4 -3 25 6 14 13 25 15 25 1 0 3 -11 3 -25z m60 10 c0 -8 -2 -15
-4 -15 -2 0 -6 7 -10 15 -3 8 -1 15 4 15 6 0 10 -7 10 -15z m-1803 -27 c-3 -8
-6 -5 -6 6 -1 11 2 17 5 13 3 -3 4 -12 1 -19z m398 12 c-3 -5 -14 -10 -23 -10
-15 0 -15 2 -2 10 20 13 33 13 25 0z m170 0 c3 -5 2 -10 -4 -10 -5 0 -13 5
-16 10 -3 6 -2 10 4 10 5 0 13 -4 16 -10z m1340 0 c4 -6 -1 -7 -11 -3 -12 4
-15 3 -10 -5 4 -7 26 -12 49 -12 29 0 38 -3 27 -9 -8 -6 -18 -7 -22 -5 -4 3
-8 1 -8 -5 0 -5 5 -13 10 -16 6 -4 7 -11 4 -17 -5 -7 0 -9 14 -6 12 4 22 2 22
-2 0 -5 -14 -11 -30 -15 -18 -4 -27 -11 -24 -17 4 -7 2 -8 -4 -4 -7 4 -12 3
-12 -1 0 -5 -9 -14 -21 -21 -12 -8 -18 -9 -15 -3 4 5 2 12 -4 16 -5 3 -10 15
-10 25 0 14 5 18 17 13 11 -4 12 -8 5 -11 -17 -5 -15 -22 2 -22 17 0 40 54 32
76 -3 9 -13 14 -20 11 -13 -5 -26 12 -26 34 0 12 27 12 35 -1z m-1646 -4 c-2
-2 -14 -9 -26 -15 -19 -10 -22 -9 -17 4 4 8 15 15 27 15 11 0 18 -2 16 -4z
m36 -26 c-3 -5 0 -10 7 -11 10 0 10 -2 1 -6 -7 -2 -13 -12 -14 -21 -1 -10 -4
-7 -8 8 -9 27 -5 40 10 40 6 0 7 -4 4 -10z m130 2 c6 -4 10 -13 9 -19 -1 -7
-2 -18 -3 -24 0 -5 -6 -7 -12 -4 -6 4 -8 14 -4 23 3 8 0 19 -7 24 -7 4 -8 8
-3 8 6 0 15 -4 20 -8z m1440 -12 c-3 -5 1 -10 7 -13 7 -2 10 -8 6 -12 -8 -8
-32 14 -35 32 -2 7 4 10 12 7 8 -4 13 -10 10 -14z m-1490 0 c3 -5 -1 -10 -9
-10 -9 0 -16 5 -16 10 0 6 4 10 9 10 6 0 13 -4 16 -10z m205 0 c8 -5 11 -12 8
-16 -10 -9 -38 3 -38 16 0 12 10 13 30 0z m-549 -17 c13 -16 12 -17 -3 -4 -10
7 -18 15 -18 17 0 8 8 3 21 -13z m499 8 c0 -6 -4 -13 -10 -16 -5 -3 -10 1 -10
9 0 9 5 16 10 16 6 0 10 -4 10 -9z m1180 -17 c0 -21 -17 -17 -23 5 -3 14 -1
18 9 14 8 -3 14 -11 14 -19z m103 9 c-7 -3 -10 -10 -7 -18 3 -8 -4 -20 -15
-27 -22 -13 -30 -68 -10 -68 5 0 7 5 3 12 -4 7 -3 8 4 4 17 -10 15 -26 -3 -26
-9 0 -18 -7 -22 -16 -3 -8 -12 -13 -19 -10 -8 3 -13 2 -13 -2 1 -4 1 -17 0
-30 -1 -18 -5 -22 -19 -18 -13 4 -25 -3 -40 -24 -27 -35 -18 -39 16 -7 14 12
22 16 17 8 -6 -11 -4 -13 10 -7 14 5 16 4 6 -8 -9 -11 -8 -15 4 -20 9 -3 13
-2 10 4 -3 5 1 7 9 4 8 -3 12 -12 9 -20 -3 -9 -12 -13 -19 -10 -8 3 -13 2 -13
-2 3 -18 -2 -32 -10 -32 -6 0 -9 14 -8 32 2 29 -18 54 -21 26 -3 -42 -7 -56
-14 -52 -4 3 -8 0 -8 -5 0 -6 6 -11 13 -11 6 0 22 -3 35 -6 16 -5 22 -2 22 10
0 9 4 16 9 16 5 0 18 3 28 6 17 5 17 5 1 -9 -20 -16 -24 -37 -8 -37 19 0 10
-16 -10 -17 -11 -1 -18 2 -15 8 4 5 -5 9 -19 9 -14 0 -30 -8 -35 -17 -9 -16
-10 -16 -11 3 0 12 -7 24 -15 28 -8 3 -15 15 -15 26 0 12 4 19 9 16 5 -3 12 1
15 10 5 13 2 15 -16 10 -13 -3 -29 -6 -35 -6 -20 0 -15 -29 7 -42 11 -7 20
-18 20 -25 0 -6 6 -14 13 -16 8 -4 8 -6 1 -6 -7 -1 -25 11 -42 25 -25 23 -29
31 -25 67 6 58 10 67 30 66 17 -1 17 -2 1 -6 -24 -6 -23 -23 2 -23 11 0 20 5
20 10 0 6 5 10 10 10 6 0 31 21 57 48 32 32 47 56 48 76 1 17 12 37 24 47 12
10 21 21 20 26 -4 22 2 34 13 27 9 -6 9 -9 1 -11z m177 13 c0 -3 -4 -8 -10
-11 -5 -3 -10 -1 -10 4 0 6 5 11 10 11 6 0 10 -2 10 -4z m-1730 -10 c0 -3 -8
-13 -17 -22 -17 -17 -17 -18 0 -11 23 9 45 -2 26 -13 -6 -5 -22 -3 -35 2 l-23
11 22 18 c23 20 27 21 27 15z m90 -4 c0 -11 -37 -32 -44 -25 -11 11 -6 21 12
26 28 8 32 7 32 -1z m142 -1 c-8 -4 -13 -11 -13 -15 3 -18 0 -26 -9 -26 -5 0
-10 6 -10 13 0 16 20 37 35 37 5 0 4 -4 -3 -9z m118 -21 c-7 -13 -7 -21 0 -25
5 -3 10 -12 10 -18 0 -7 -5 -4 -11 6 -8 14 -14 16 -24 7 -8 -7 -19 -9 -25 -5
-5 3 -10 1 -10 -4 0 -6 -7 -11 -16 -11 -8 0 -13 -4 -9 -9 3 -5 1 -12 -5 -16
-16 -10 -12 -28 5 -21 9 3 15 0 15 -9 0 -8 -5 -14 -12 -12 -7 1 -12 -4 -13
-12 0 -13 -19 -21 -57 -24 -10 -1 -18 -4 -18 -7 0 -3 -11 -5 -25 -5 -23 0 -24
1 -8 13 9 6 25 12 35 12 24 0 69 30 62 41 -3 5 -20 9 -37 10 -30 1 -29 2 13
14 25 7 40 13 33 14 -36 3 29 51 69 51 12 0 18 7 18 21 0 11 5 17 10 14 7 -4
7 -12 0 -25z m-481 -16 c-11 -14 -10 -19 7 -33 11 -9 23 -27 26 -39 5 -19 0
-16 -28 15 -38 41 -39 44 -22 61 7 7 8 12 3 12 -6 0 -3 5 5 10 20 13 26 -6 9
-26z m43 -1 c-3 -16 -7 -22 -10 -15 -4 13 4 42 11 42 2 0 2 -12 -1 -27z m1198
23 c0 -3 -4 -8 -10 -11 -5 -3 -10 -1 -10 4 0 6 5 11 10 11 6 0 10 -2 10 -4z
m-965 -16 c3 -5 1 -10 -4 -10 -6 0 -11 5 -11 10 0 6 2 10 4 10 3 0 8 -4 11
-10z m263 -7 c-4 -22 -22 -20 -26 1 -2 10 3 16 13 16 10 0 15 -7 13 -17z
m-334 -8 c-4 -8 -11 -15 -16 -15 -6 0 -5 6 2 15 7 8 14 15 16 15 2 0 1 -7 -2
-15z m51 -13 c-3 -3 -11 0 -18 7 -9 10 -8 11 6 5 10 -3 15 -9 12 -12z m1465 1
c0 -15 -2 -16 -10 -3 -9 13 -11 13 -19 0 -6 -8 -13 -11 -18 -7 -8 9 15 27 35
27 6 0 12 -8 12 -17z m154 9 c2 -4 -5 -9 -17 -9 -17 -2 -19 0 -7 7 18 12 18
12 24 2z m-1562 -17 c0 -5 -5 -11 -11 -13 -6 -2 -11 4 -11 13 0 9 5 15 11 13
6 -2 11 -8 11 -13z m928 0 c0 -9 -9 -15 -22 -15 -21 0 -21 0 -2 15 24 18 24
18 24 0z m-1082 -9 c-10 -7 -18 -18 -18 -25 0 -6 -4 -11 -10 -11 -5 0 -6 7 -3
17 5 12 3 14 -7 8 -9 -5 -11 -4 -6 4 4 6 11 9 16 6 5 -3 11 -1 15 5 3 5 12 10
18 10 7 0 4 -7 -5 -14z m422 4 c0 -5 -4 -10 -10 -10 -5 0 -10 -7 -10 -15 0 -8
-4 -15 -10 -15 -14 0 -13 18 3 35 14 17 27 19 27 5z m-495 -10 c3 -5 1 -10 -4
-10 -6 0 -11 5 -11 10 0 6 2 10 4 10 3 0 8 -4 11 -10z m1525 -11 c0 -5 -4 -9
-10 -9 -5 0 -10 7 -10 16 0 8 5 12 10 9 6 -3 10 -10 10 -16z m228 1 c-9 -14
-15 -16 -20 -7 -6 9 -14 5 -28 -12 -22 -25 -26 -41 -10 -41 6 0 10 5 10 12 0
9 3 9 12 0 14 -14 8 -21 -21 -27 -12 -2 -21 1 -21 8 0 7 -4 6 -11 -3 -18 -26
-5 3 20 43 17 28 29 37 42 34 11 -3 19 -1 19 4 0 5 5 9 10 9 6 0 5 -8 -2 -20z
m-1581 -10 c4 -12 3 -12 -5 -2 -8 11 -14 9 -31 -9 -11 -12 -24 -19 -28 -14 -5
4 -2 10 5 12 6 3 12 11 12 20 0 19 42 13 47 -7z m1253 4 c0 -8 -5 -12 -10 -9
-6 4 -8 11 -5 16 9 14 15 11 15 -7z m180 6 c0 -5 -2 -10 -4 -10 -3 0 -8 5 -11
10 -3 6 -1 10 4 10 6 0 11 -4 11 -10z m-1760 -14 c0 -8 6 -16 13 -19 6 -2 9
-8 5 -12 -4 -4 -14 -3 -21 3 -8 7 -17 9 -20 5 -4 -3 -7 3 -7 15 0 13 6 22 15
22 8 0 15 -6 15 -14z m354 -13 c-4 -15 -14 -35 -23 -43 -13 -13 -14 -13 -9 2
4 9 2 19 -5 22 -7 2 -4 5 6 5 10 1 17 9 17 21 0 11 5 20 10 20 6 0 8 -11 4
-27z m210 18 c3 -5 -5 -8 -19 -8 -14 0 -22 3 -19 8 3 5 11 9 19 9 8 0 16 -4
19 -9z m136 -5 c0 -8 -13 -16 -29 -18 -21 -3 -28 -1 -24 9 3 8 12 12 19 9 7
-3 16 -1 19 4 9 14 15 12 15 -4z m840 -17 c0 -6 -4 -7 -10 -4 -5 3 -10 11 -10
16 0 6 5 7 10 4 6 -3 10 -11 10 -16z m457 -1 c-3 -8 -6 -5 -6 6 -1 11 2 17 5
13 3 -3 4 -12 1 -19z m-1780 -13 c0 -8 -4 -12 -9 -9 -5 3 -6 10 -3 15 9 13 12
11 12 -6z m163 5 c0 -5 -5 -10 -11 -10 -5 0 -7 5 -4 10 3 6 8 10 11 10 2 0 4
-4 4 -10z m21 -13 c-10 -9 -11 -8 -5 6 3 10 9 15 12 12 3 -3 0 -11 -7 -18z
m326 1 c-3 -8 -6 -5 -6 6 -1 11 2 17 5 13 3 -3 4 -12 1 -19z m378 12 c-3 -5
-12 -10 -18 -10 -7 0 -6 4 3 10 19 12 23 12 15 0z m535 6 c0 -3 -4 -8 -10 -11
-5 -3 -10 -1 -10 4 0 6 5 11 10 11 6 0 10 -2 10 -4z m273 -3 c-7 -2 -19 -2
-25 0 -7 3 -2 5 12 5 14 0 19 -2 13 -5z m-343 -38 c-6 -15 -13 -26 -16 -23 -2
3 0 18 6 33 6 15 13 26 16 23 2 -3 0 -18 -6 -33z m55 7 c-6 -7 -34 11 -29 19
3 5 11 3 19 -4 7 -6 12 -13 10 -15z m120 19 c3 -5 1 -12 -5 -16 -5 -3 -10 -15
-10 -26 0 -32 -17 -13 -18 21 -1 29 19 42 33 21z m235 -6 c0 -8 -4 -15 -10
-15 -5 0 -10 7 -10 15 0 8 5 15 10 15 6 0 10 -7 10 -15z m-1696 -10 c4 -11 -1
-15 -19 -15 -24 0 -32 10 -18 23 11 12 31 8 37 -8z m316 11 c0 -3 -4 -8 -10
-11 -5 -3 -10 -1 -10 4 0 6 5 11 10 11 6 0 10 -2 10 -4z m40 -15 c0 -11 5 -23
10 -26 6 -3 10 -1 10 6 0 7 3 9 7 6 3 -4 15 0 25 10 14 13 18 13 18 2 0 -8
-10 -19 -22 -24 -28 -12 -22 -30 10 -29 12 1 22 -4 22 -11 0 -7 -9 -10 -24 -8
-13 3 -27 0 -30 -6 -14 -22 -26 -10 -21 19 3 17 1 30 -5 30 -5 0 -10 8 -10 18
0 14 -2 15 -10 2 -11 -17 -13 -10 -4 14 9 22 24 20 24 -3z m152 7 c3 -7 18
-12 34 -13 24 0 29 -4 29 -24 0 -32 20 -38 37 -12 7 12 23 21 37 21 20 0 22
-3 13 -12 -7 -7 -12 -20 -12 -29 0 -9 -7 -22 -15 -29 -18 -15 -21 1 -5 31 8
13 7 19 0 19 -6 0 -13 -7 -16 -15 -7 -18 -35 -20 -51 -4 -6 6 -9 18 -6 25 3 9
-2 14 -17 14 -20 0 -50 21 -50 34 0 11 18 6 22 -6z m-308 -14 c3 -8 2 -12 -4
-9 -6 3 -10 10 -10 16 0 14 7 11 14 -7z m1281 -4 c-3 -5 -10 -10 -16 -10 -5 0
-9 5 -9 10 0 6 7 10 16 10 8 0 12 -4 9 -10z m-1547 -12 c-2 -6 -10 -14 -16
-16 -7 -2 -10 2 -6 12 7 18 28 22 22 4z m322 -8 c-8 -5 -17 -7 -19 -4 -3 3 1
9 9 14 8 5 17 7 19 4 3 -3 -1 -9 -9 -14z m1060 16 c0 -3 -4 -8 -10 -11 -5 -3
-10 -1 -10 4 0 6 5 11 10 11 6 0 10 -2 10 -4z m-1186 -40 c-21 -9 -29 -24 -25
-49 1 -5 -3 -6 -8 -3 -5 4 -13 1 -17 -5 -4 -8 -9 -7 -15 2 -6 10 -9 11 -9 2 0
-7 -5 -13 -10 -13 -6 0 -6 7 1 19 8 11 20 17 33 14 16 -4 18 -2 7 5 -15 11 -7
32 14 32 7 0 16 7 19 16 5 12 8 13 20 2 13 -11 11 -14 -10 -22z m186 18 c0 -2
-7 -4 -15 -4 -8 0 -15 4 -15 10 0 5 7 7 15 4 8 -4 15 -8 15 -10z m532 -17 c-3
-12 -12 -27 -19 -32 -10 -8 -11 -17 -5 -34 6 -16 11 -20 16 -13 4 7 12 12 19
12 6 0 4 -8 -6 -17 -16 -17 -19 -16 -43 10 -13 15 -20 27 -14 27 5 0 10 5 10
11 0 7 7 17 16 24 15 11 15 12 -5 18 -17 4 -27 -2 -45 -31 -12 -20 -25 -44
-29 -52 -4 -10 -6 -8 -6 8 -1 12 3 22 8 22 4 0 12 14 17 32 7 22 17 34 34 38
40 10 58 1 52 -23z m258 23 c0 -5 -5 -10 -11 -10 -5 0 -7 5 -4 10 3 6 8 10 11
10 2 0 4 -4 4 -10z m420 0 c0 -5 -6 -7 -14 -4 -9 4 -13 -2 -12 -18 1 -16 -4
-23 -15 -22 -10 1 -23 -9 -30 -22 -7 -13 -19 -24 -28 -24 -12 1 -11 5 7 19 12
11 22 24 22 30 0 6 4 11 10 11 5 0 6 7 3 17 -4 11 -3 14 5 9 7 -4 12 -2 12 3
0 6 9 11 20 11 11 0 20 -4 20 -10z m36 -6 c-9 -6 -13 -14 -9 -18 4 -4 1 -11
-7 -16 -21 -14 -30 -12 -30 5 0 8 6 12 14 9 10 -4 13 0 10 13 -4 14 0 19 16
19 18 0 19 -2 6 -12z m-1506 -13 c0 -16 -13 -20 -32 -10 -10 5 -16 14 -13 19
6 9 45 1 45 -9z m652 -6 c3 -15 1 -25 -6 -25 -6 0 -12 11 -12 25 -2 32 12 32
18 0z m48 16 c0 -6 -4 -13 -10 -16 -5 -3 -10 1 -10 9 0 9 5 16 10 16 6 0 10
-4 10 -9z m-956 -10 c3 -5 0 -11 -7 -14 -8 -3 -14 1 -14 9 0 16 13 19 21 5z
m1629 -5 c4 -10 0 -12 -14 -9 -22 6 -26 23 -5 23 8 0 16 -6 19 -14z m214 -11
c-7 -17 -37 -21 -37 -5 0 6 7 10 15 10 8 0 15 5 15 12 0 6 3 9 6 5 4 -3 4 -13
1 -22z m-1727 0 c-7 -9 -15 -13 -17 -11 -7 7 7 26 19 26 6 0 6 -6 -2 -15z
m320 -11 c0 -8 -5 -14 -11 -14 -5 0 -7 6 -3 13 4 6 -2 4 -13 -5 -26 -24 -41
-23 -20 0 10 10 14 21 11 25 -3 3 3 3 15 0 12 -3 21 -12 21 -19z m278 6 c-11
-16 -9 -22 7 -34 17 -13 18 -15 3 -16 -21 0 -33 37 -18 55 18 21 22 18 8 -5z
m649 3 c4 -9 1 -19 -5 -21 -7 -2 -12 -12 -12 -22 0 -23 -13 -32 -34 -24 -23 9
-20 24 5 24 13 0 20 6 18 18 -4 43 15 60 28 25z m-181 -5 c-5 -24 -29 -68 -38
-68 -4 0 -8 7 -8 15 0 8 5 15 11 15 6 0 8 9 4 21 -5 14 -3 19 3 15 6 -3 13 -2
17 4 8 14 14 13 11 -2z m134 2 c0 -5 -7 -10 -15 -10 -8 0 -15 -7 -15 -16 0 -8
-4 -12 -10 -9 -18 11 -11 34 13 38 12 2 23 5 25 6 1 0 2 -3 2 -9z m-534 -37
c-7 -7 -26 7 -26 19 0 6 6 6 15 -2 9 -7 13 -15 11 -17z m418 -7 c-6 -26 -15
-32 -27 -20 -6 6 25 55 31 49 2 -1 0 -14 -4 -29z m231 15 c0 -10 -8 -29 -16
-42 -35 -54 -35 -55 -7 -37 26 17 27 17 23 -3 -3 -15 0 -19 10 -15 8 3 15 1
15 -4 0 -6 -4 -10 -9 -10 -5 0 -11 -9 -14 -20 -4 -17 -44 -42 -72 -44 -5 -1
-11 -9 -13 -18 -3 -13 1 -16 15 -12 17 5 17 5 -1 -6 -15 -10 -16 -14 -5 -21 9
-7 5 -8 -12 -3 -15 3 -29 1 -33 -4 -3 -5 -17 -7 -31 -5 -13 3 -22 9 -20 14 3
4 12 6 20 3 21 -8 46 10 61 44 11 26 10 30 -2 25 -8 -3 -14 1 -14 11 0 9 -5
16 -11 16 -6 0 -9 6 -6 14 3 7 0 19 -6 25 -6 6 -7 14 -3 18 4 4 11 1 16 -7 8
-12 10 -12 10 -1 0 7 6 11 14 8 17 -7 30 20 13 27 -7 2 -5 5 4 5 9 1 19 8 23
16 3 9 12 12 22 8 12 -4 15 -3 10 5 -8 13 0 32 13 32 4 0 7 -8 6 -19z m369
-15 c2 -14 -1 -23 -5 -20 -5 3 -9 17 -9 31 0 32 11 24 14 -11z m-1297 -2 c-9
-9 -28 6 -21 18 4 6 10 6 17 -1 6 -6 8 -13 4 -17z m385 -2 c3 -12 -1 -18 -12
-19 -13 -1 -16 4 -12 23 5 26 17 24 24 -4z m-269 11 c3 7 6 4 6 -6 1 -10 5
-16 10 -13 5 4 12 0 14 -6 3 -8 6 -6 6 5 1 17 21 15 21 -2 0 -14 -54 -34 -58
-21 -2 6 -14 20 -26 32 l-21 20 22 -11 c16 -8 23 -8 26 2z m626 -14 c-7 -13
-7 -19 -1 -15 6 3 14 1 17 -5 4 -5 13 -8 21 -5 20 8 17 0 -11 -28 -31 -31 -31
-36 -2 -29 13 4 19 2 14 -3 -5 -5 -12 -9 -15 -9 -21 -1 -49 -30 -44 -47 2 -10
0 -18 -4 -19 -5 0 -19 -2 -31 -5 -33 -6 -28 11 12 47 40 37 43 44 15 46 -11 1
-18 -3 -14 -8 6 -10 -34 -48 -51 -48 -5 0 -2 4 7 10 9 5 15 15 13 22 -7 18 21
50 36 41 9 -5 10 -2 6 9 -3 10 -2 17 3 17 6 0 10 6 10 13 0 12 19 37 27 37 2
0 -1 -10 -8 -21z m508 -1 c-3 -8 -6 -5 -6 6 -1 11 2 17 5 13 3 -3 4 -12 1 -19z
m-1799 -13 c-3 -3 -9 2 -12 12 -6 14 -5 15 5 6 7 -7 10 -15 7 -18z m82 15 c0
-5 -5 -10 -11 -10 -5 0 -7 5 -4 10 3 6 8 10 11 10 2 0 4 -4 4 -10z m1648 -1
c-10 -5 -18 -16 -18 -23 0 -8 -7 -16 -15 -20 -19 -7 -19 8 0 24 8 7 12 16 9
21 -3 5 5 9 18 9 20 -1 21 -2 6 -11z m-1508 -21 c0 -13 -23 -5 -28 10 -2 7 2
10 12 6 9 -3 16 -11 16 -16z m148 8 c-7 -8 -15 -12 -17 -11 -5 6 10 25 20 25
5 0 4 -6 -3 -14z m676 -1 c3 -8 1 -15 -4 -15 -6 0 -10 7 -10 15 0 8 2 15 4 15
2 0 6 -7 10 -15z m126 6 c0 -5 -9 -11 -21 -14 -16 -4 -18 -3 -8 9 13 16 29 19
29 5z m-850 -5 c0 -2 -11 -6 -25 -8 -13 -3 -22 -1 -19 3 5 9 44 13 44 5z m91
-19 c-10 -9 -11 -8 -5 6 3 10 9 15 12 12 3 -3 0 -11 -7 -18z m197 16 c-21 -5
-21 -8 -8 -34 8 -13 7 -19 0 -19 -6 0 -8 -5 -5 -10 4 -6 -2 -9 -14 -7 -29 4
-38 17 -13 17 12 0 22 5 22 10 0 6 -4 10 -9 10 -5 0 -7 9 -4 20 3 13 13 20 27
19 17 -1 17 -2 4 -6z m226 -23 c-35 -36 -42 -37 -40 -7 1 17 6 23 19 19 9 -2
17 1 17 7 0 6 8 11 17 11 12 0 9 -7 -13 -30z m-332 8 c-9 -9 -7 -17 10 -35 19
-20 19 -23 4 -23 -11 0 -14 4 -10 12 5 7 2 9 -7 6 -19 -7 -24 33 -6 44 18 12
23 10 9 -4z m52 -3 c-4 -8 -12 -15 -20 -15 -17 0 -18 17 -1 23 22 9 27 7 21
-8z m-584 -10 c0 -8 -2 -15 -4 -15 -2 0 -6 7 -10 15 -3 8 -1 15 4 15 6 0 10
-7 10 -15z m34 -1 c3 -8 2 -12 -4 -9 -6 3 -10 10 -10 16 0 14 7 11 14 -7z
m1166 11 c0 -19 -44 -48 -77 -50 -21 -2 -30 -1 -20 2 9 2 17 11 17 19 0 8 5
14 11 14 6 0 9 -6 6 -14 -4 -9 0 -12 13 -9 10 3 20 13 23 24 5 17 27 28 27 14z
m825 -23 c-8 -2 -15 -8 -15 -13 0 -5 -4 -9 -9 -9 -4 0 -6 11 -4 24 5 22 8 23
24 13 16 -10 17 -13 4 -15z m-1745 8 c0 -5 -5 -10 -11 -10 -5 0 -7 5 -4 10 3
6 8 10 11 10 2 0 4 -4 4 -10z m690 -6 c0 -2 -7 -4 -15 -4 -8 0 -15 4 -15 10 0
5 7 7 15 4 8 -4 15 -8 15 -10z m90 2 c0 -15 -48 -28 -56 -15 -3 5 4 9 15 9 11
0 23 5 26 10 9 14 15 12 15 -4z m40 -1 c-7 -8 -16 -15 -21 -15 -5 0 -6 7 -3
15 4 8 13 15 21 15 13 0 13 -3 3 -15z m722 -7 c-7 -7 -12 -8 -12 -2 0 14 12
26 19 19 2 -3 -1 -11 -7 -17z m-1358 -3 c3 -8 1 -15 -4 -15 -6 0 -10 7 -10 15
0 8 2 15 4 15 2 0 6 -7 10 -15z m272 3 c4 -5 -7 -13 -24 -19 -18 -6 -29 -15
-26 -20 3 -5 0 -9 -6 -9 -8 0 -9 7 -5 18 4 9 8 22 8 27 0 12 41 14 53 3z m29
-5 c0 -10 -5 -19 -10 -20 -9 -3 -10 2 -6 27 2 18 18 11 16 -7z m138 0 c-28
-11 -12 -25 22 -20 19 3 35 2 35 -4 0 -5 -9 -9 -20 -9 -11 0 -20 -4 -20 -10 0
-15 -16 -12 -35 6 -12 12 -13 19 -4 30 6 8 17 14 23 13 7 0 6 -2 -1 -6z m-915
-38 c-3 -3 -9 2 -12 12 -6 14 -5 15 5 6 7 -7 10 -15 7 -18z m52 5 c0 -11 -4
-20 -8 -20 -4 0 -8 9 -8 20 0 11 4 20 8 20 4 0 8 -9 8 -20z m799 -12 c17 0 31
-4 31 -9 0 -5 -5 -9 -11 -9 -5 0 -8 -4 -5 -9 3 -5 -5 -11 -19 -13 -13 -3 -23
-2 -21 1 3 3 -2 15 -9 25 -16 21 -45 15 -45 -9 0 -8 -4 -15 -10 -15 -12 0 -2
28 19 52 13 15 16 16 26 1 7 -9 25 -16 44 -15z m181 2 c-10 -18 -9 -24 1 -31
10 -6 15 -2 17 14 6 32 23 50 36 37 8 -8 7 -13 -4 -20 -13 -8 -12 -10 3 -10 9
0 17 -4 17 -10 0 -5 9 -10 20 -10 24 0 27 -15 5 -24 -9 -3 -18 1 -21 9 -8 19
-34 19 -35 0 -1 -8 -3 -19 -4 -25 -1 -5 -3 -14 -4 -20 0 -5 -7 -7 -15 -4 -8 3
-19 -4 -26 -16 -6 -12 -20 -30 -31 -41 -10 -10 -19 -23 -19 -27 0 -5 -6 -9
-14 -9 -27 0 1 51 29 52 6 1 9 6 8 12 -2 7 9 21 24 32 14 12 21 21 15 21 -6 0
-9 6 -6 14 3 8 1 17 -4 20 -5 3 -9 -6 -9 -20 0 -30 -17 -44 -44 -37 -11 3 -19
0 -19 -7 0 -7 7 -10 18 -5 13 5 14 4 5 -6 -7 -7 -23 -13 -36 -15 -21 -2 -24 1
-19 19 5 20 4 21 -12 8 -10 -8 -15 -23 -13 -33 3 -11 0 -18 -9 -18 -18 0 -18
9 4 45 13 21 16 38 11 58 -8 31 -4 34 18 12 8 -8 19 -13 24 -9 6 3 21 -1 34
-10 15 -10 26 -12 30 -6 3 6 1 10 -6 10 -8 0 -8 4 1 15 7 9 9 19 5 23 -4 4
-10 1 -12 -6 -3 -6 -9 -10 -14 -6 -15 9 9 42 33 46 30 5 32 3 18 -22z m200 20
c0 -5 -7 -10 -16 -10 -8 0 -12 5 -9 10 3 6 10 10 16 10 5 0 9 -4 9 -10z m430
2 c0 -11 -41 -45 -47 -39 -6 6 28 47 39 47 5 0 8 -3 8 -8z m87 -14 c-3 -8 -6
-5 -6 6 -1 11 2 17 5 13 3 -3 4 -12 1 -19z m-1384 -8 c3 -11 1 -18 -4 -14 -5
3 -9 12 -9 20 0 20 7 17 13 -6z m387 10 c0 -5 -4 -10 -10 -10 -5 0 -10 5 -10
10 0 6 5 10 10 10 6 0 10 -4 10 -10z m936 -6 c-3 -9 -6 -20 -6 -25 0 -6 -4 -8
-9 -5 -12 8 -2 46 11 46 6 0 7 -7 4 -16z m-502 -8 c-3 -8 -1 -17 5 -21 6 -3
11 -1 11 6 0 6 8 1 19 -12 20 -25 18 -51 -4 -43 -7 3 -16 -4 -20 -15 -3 -12
-13 -21 -21 -21 -8 0 -14 -7 -14 -15 0 -8 -5 -15 -11 -15 -6 0 -9 -7 -6 -14 4
-10 1 -13 -8 -10 -7 3 -15 -2 -18 -13 -3 -13 -5 -14 -6 -2 0 8 8 25 18 36 11
12 18 29 15 40 -4 16 3 22 37 33 23 8 35 16 28 18 -25 8 -48 34 -42 48 3 8 9
14 14 14 4 0 6 -6 3 -14z m382 -21 c-4 -14 -13 -25 -21 -25 -12 0 -11 5 3 29
19 34 27 33 18 -4z m-1682 13 c-3 -4 -9 -8 -15 -8 -5 0 -9 4 -9 8 0 5 7 9 15
9 8 0 12 -4 9 -9z m33 -20 c-3 -7 -5 -2 -5 12 0 14 2 19 5 13 2 -7 2 -19 0
-25z m283 22 c0 -5 -4 -10 -10 -10 -5 0 -10 5 -10 10 0 6 5 10 10 10 6 0 10
-4 10 -10z m317 -12 c-3 -8 -6 -5 -6 6 -1 11 2 17 5 13 3 -3 4 -12 1 -19z
m443 6 c0 -8 -4 -12 -10 -9 -5 3 -10 10 -10 16 0 5 5 9 10 9 6 0 10 -7 10 -16z
m428 -13 c-7 -9 -23 -27 -36 -40 l-23 -25 11 28 c14 37 13 41 -7 25 -14 -12
-16 -12 -11 1 3 8 15 14 27 13 13 -2 21 3 21 12 0 9 6 12 15 9 13 -5 13 -9 3
-23z m-1435 1 c-21 -22 -26 -21 -17 2 3 9 12 16 20 16 11 0 10 -4 -3 -18z
m627 9 c0 -6 -4 -13 -10 -16 -5 -3 -10 1 -10 9 0 9 5 16 10 16 6 0 10 -4 10
-9z m100 -17 c0 -8 -4 -14 -10 -14 -5 0 -10 9 -10 21 0 11 5 17 10 14 6 -3 10
-13 10 -21z m50 10 c0 -8 -4 -12 -10 -9 -5 3 -10 10 -10 16 0 5 5 9 10 9 6 0
10 -7 10 -16z m-620 -4 c0 -5 -5 -10 -11 -10 -5 0 -7 5 -4 10 3 6 8 10 11 10
2 0 4 -4 4 -10z m540 -12 c0 -13 -23 -5 -28 10 -2 7 2 10 12 6 9 -3 16 -11 16
-16z m1354 16 c20 -8 20 -20 0 -28 -8 -3 -12 -2 -9 4 6 9 -8 14 -28 11 -5 -1
-6 3 -2 9 7 12 17 13 39 4z m-1966 -16 c-2 -7 6 -13 18 -12 17 1 19 -4 16 -28
-5 -32 -17 -44 -28 -27 -4 8 -3 9 4 5 7 -4 12 -1 12 9 0 9 -4 14 -9 11 -5 -3
-11 1 -15 9 -3 8 -12 12 -21 9 -17 -7 -18 -3 -9 20 7 19 35 22 32 4z m1566 -3
c-4 -8 -8 -15 -10 -15 -2 0 -4 7 -4 15 0 8 4 15 10 15 5 0 7 -7 4 -15z m499
-48 c-8 -12 -26 9 -30 34 -3 21 -3 21 16 -2 11 -13 17 -28 14 -32z m-1359 28
c-4 -8 -8 -15 -10 -15 -2 0 -4 7 -4 15 0 8 4 15 10 15 5 0 7 -7 4 -15z m96 -5
c-6 -11 -8 -25 -5 -30 4 -6 -6 -10 -22 -10 -21 0 -24 3 -13 10 8 5 11 12 7 16
-4 5 3 14 15 21 30 16 30 16 18 -7z m38 -14 c-9 -8 -18 -12 -22 -9 -11 11 -6
23 10 23 9 0 12 5 8 13 -5 9 -4 9 6 0 10 -9 10 -15 -2 -27z m312 30 c0 -2 -11
-6 -25 -8 -13 -3 -22 -1 -19 3 5 9 44 13 44 5z m-60 -32 c0 -7 -4 -16 -10 -19
-5 -3 -10 1 -10 9 0 10 -6 13 -15 10 -11 -4 -13 -2 -9 9 6 18 44 11 44 -9z
m-1185 6 c3 -5 -1 -10 -9 -10 -8 0 -18 5 -21 10 -3 6 1 10 9 10 8 0 18 -4 21
-10z m1315 -6 c0 -9 5 -12 11 -8 7 4 10 1 7 -7 -3 -8 -10 -14 -16 -14 -7 0
-13 -4 -14 -10 -1 -12 -29 -34 -42 -35 -5 0 -3 6 3 14 9 11 9 15 -1 19 -9 4
-8 6 3 6 16 1 34 27 31 44 -1 4 3 7 8 7 6 0 10 -7 10 -16z m320 6 c0 -5 -5
-10 -11 -10 -5 0 -7 5 -4 10 3 6 8 10 11 10 2 0 4 -4 4 -10z m318 -15 c-3 -3
-9 2 -12 12 -6 14 -5 15 5 6 7 -7 10 -15 7 -18z m-1245 8 c-7 -2 -13 -10 -13
-18 0 -7 -8 -19 -17 -26 -16 -13 -17 -12 -4 4 7 9 10 17 6 17 -4 0 -2 7 5 15
7 8 18 15 24 14 7 0 6 -2 -1 -6z m877 3 c0 -2 -7 -6 -15 -10 -8 -3 -15 -1 -15
4 0 6 7 10 15 10 8 0 15 -2 15 -4z m620 -6 c0 -5 -2 -10 -4 -10 -3 0 -8 5 -11
10 -3 6 -1 10 4 10 6 0 11 -4 11 -10z m-935 -10 c3 -5 1 -10 -4 -10 -6 0 -11
5 -11 10 0 6 2 10 4 10 3 0 8 -4 11 -10z m-1229 -38 c-4 -3 -12 0 -19 8 -9 10
-9 11 1 6 7 -5 12 -1 13 11 1 17 2 17 6 0 3 -10 2 -21 -1 -25z m1119 23 c18
-15 18 -16 1 -33 -14 -12 -20 -14 -23 -4 -3 6 -14 12 -26 12 -20 0 -20 0 -1
19 23 24 24 24 49 6z m202 -12 c-9 -9 -20 -13 -24 -9 -4 4 1 14 11 22 25 18
35 8 13 -13z m638 9 c-3 -3 -11 0 -18 7 -9 10 -8 11 6 5 10 -3 15 -9 12 -12z
m-88 -14 c-3 -8 -6 -5 -6 6 -1 11 2 17 5 13 3 -3 4 -12 1 -19z m252 -5 c0 -25
-1 -25 -8 -8 -5 11 -7 23 -4 28 8 14 13 7 12 -20z m-750 -5 c-10 -19 -29 -16
-29 5 0 7 9 13 19 13 16 0 18 -4 10 -18z m651 1 c0 -5 -7 -9 -15 -9 -9 0 -12
6 -9 15 6 15 24 11 24 -6z m-1873 -14 c0 -10 -5 -11 -18 -4 -28 14 -31 27 -5
22 12 -3 23 -11 23 -18z m703 9 c0 -8 -4 -12 -10 -9 -5 3 -10 10 -10 16 0 5 5
9 10 9 6 0 10 -7 10 -16z m590 0 c0 -8 -4 -12 -10 -9 -5 3 -10 10 -10 16 0 5
5 9 10 9 6 0 10 -7 10 -16z m-1405 -3 c3 -5 1 -12 -4 -15 -5 -3 -11 1 -15 9
-6 16 9 21 19 6z m772 -13 c-3 -8 -6 -5 -6 6 -1 11 2 17 5 13 3 -3 4 -12 1
-19z m473 -10 c0 -16 -3 -19 -11 -11 -6 6 -8 16 -5 22 11 17 16 13 16 -11z
m760 -15 c-11 -17 -11 -17 -6 0 3 10 6 24 7 30 0 9 2 9 5 0 3 -7 0 -20 -6 -30z
m48 11 c4 2 13 -2 20 -10 8 -9 9 -14 2 -14 -22 0 -50 21 -50 38 1 16 1 16 11
-1 6 -9 13 -16 17 -13z m-1173 -2 c-3 -3 -11 0 -18 7 -9 10 -8 11 6 5 10 -3
15 -9 12 -12z m165 -27 c-7 -8 -18 -15 -24 -15 -6 0 -2 7 8 15 11 8 16 15 12
15 -4 0 -4 5 0 12 6 9 9 9 12 0 2 -7 -2 -19 -8 -27z m110 25 c0 -5 -2 -10 -4
-10 -3 0 -8 5 -11 10 -3 6 -1 10 4 10 6 0 11 -4 11 -10z m180 -6 c0 -2 -7 -4
-15 -4 -8 0 -15 4 -15 10 0 5 7 7 15 4 8 -4 15 -8 15 -10z m385 6 c3 -5 -1
-10 -9 -10 -9 0 -16 5 -16 10 0 6 4 10 9 10 6 0 13 -4 16 -10z m229 -5 c-25
-19 -40 -19 -24 0 7 8 20 15 28 15 13 0 12 -3 -4 -15z m-1885 -19 c-12 -10
-49 -16 -49 -7 0 5 10 11 23 13 22 4 34 1 26 -6z m802 -4 c-7 -2 -18 1 -23 6
-8 8 -4 9 13 5 13 -4 18 -8 10 -11z m1096 -2 c-1 -11 -5 -20 -9 -20 -10 0 -10
4 -2 24 8 22 13 20 11 -4z m-670 -12 c-3 -8 -6 -5 -6 6 -1 11 2 17 5 13 3 -3
4 -12 1 -19z m-337 2 c0 -5 -5 -10 -11 -10 -5 0 -7 5 -4 10 3 6 8 10 11 10 2
0 4 -4 4 -10z m839 -6 c13 -13 -10 -12 -35 2 l-29 16 30 -7 c16 -4 32 -9 34
-11z m141 6 c0 -5 -5 -10 -11 -10 -5 0 -7 5 -4 10 3 6 8 10 11 10 2 0 4 -4 4
-10z m-1020 -10 c0 -5 -5 -10 -11 -10 -5 0 -7 5 -4 10 3 6 8 10 11 10 2 0 4
-4 4 -10z m1045 -40 c3 -5 1 -10 -4 -10 -6 0 -11 5 -11 10 0 6 2 10 4 10 3 0
8 -4 11 -10z m-40 -20 c3 -5 1 -10 -4 -10 -6 0 -11 5 -11 10 0 6 2 10 4 10 3
0 8 -4 11 -10z m-1158 -60 c-5 -31 -17 -36 -17 -7 0 15 4 27 10 27 5 0 9 -9 7
-20z m150 -11 c-14 -8 -22 -8 -30 0 -8 8 -3 11 19 11 25 -1 27 -2 11 -11z
m-114 -45 c-7 -18 -16 -10 -20 18 -3 17 -1 19 11 9 8 -7 12 -19 9 -27z m291
22 c-10 -8 -21 -12 -24 -10 -5 6 21 24 34 24 6 0 1 -6 -10 -14z m46 0 c0 -3
-4 -8 -10 -11 -5 -3 -10 -1 -10 4 0 6 5 11 10 11 6 0 10 -2 10 -4z m-276 -24
c3 -5 -1 -9 -9 -9 -8 0 -12 4 -9 9 3 4 7 8 9 8 2 0 6 -4 9 -8z m171 -12 c3 -5
-1 -10 -10 -10 -9 0 -13 5 -10 10 3 6 8 10 10 10 2 0 7 -4 10 -10z m85 -24 c0
-3 -4 -8 -10 -11 -5 -3 -10 -1 -10 4 0 6 5 11 10 11 6 0 10 -2 10 -4z m-220
-16 c0 -5 -2 -10 -4 -10 -3 0 -8 5 -11 10 -3 6 -1 10 4 10 6 0 11 -4 11 -10z
m85 -20 c3 -5 -1 -10 -10 -10 -9 0 -13 5 -10 10 3 6 8 10 10 10 2 0 7 -4 10
-10z m-128 -7 c-10 -3 -16 -10 -14 -16 5 -14 -12 -31 -30 -33 -32 -3 -34 -4
-23 -23 7 -14 6 -27 -5 -48 -8 -15 -15 -33 -15 -40 0 -6 -4 -14 -9 -17 -5 -3
-3 15 5 42 8 26 13 56 10 67 -2 11 0 29 4 40 7 16 9 16 9 3 1 -23 41 -11 41
13 0 13 7 19 23 18 18 -1 18 -2 4 -6z m209 -2 c-4 -5 -1 -12 4 -14 6 -3 5 -4
-2 -3 -15 3 -23 26 -8 26 6 0 9 -4 6 -9z m-186 -31 c0 -5 -2 -10 -4 -10 -3 0
-8 5 -11 10 -3 6 -1 10 4 10 6 0 11 -4 11 -10z m110 -2 c0 -4 -4 -8 -9 -8 -6
0 -12 4 -15 8 -3 5 1 9 9 9 8 0 15 -4 15 -9z m55 -21 c1 -34 0 -34 -18 2 -13
26 -13 29 2 26 10 -1 16 -12 16 -28z m-118 7 c-3 -3 -12 -4 -19 -1 -8 3 -5 6
6 6 11 1 17 -2 13 -5z m1 -27 c6 -5 12 -16 12 -25 0 -11 -5 -10 -19 6 -20 24
-41 29 -41 10 0 -6 -2 -9 -5 -6 -3 3 -3 12 1 21 6 16 27 14 52 -6z m199 12
c-9 -6 -15 -14 -12 -20 4 -5 2 -9 -4 -9 -20 0 -7 36 13 37 19 2 19 1 3 -8z
m-160 -41 c-3 -8 -6 -5 -6 6 -1 11 2 17 5 13 3 -3 4 -12 1 -19z m63 10 c0 -6
-3 -8 -7 -5 -3 4 -15 0 -25 -10 -20 -18 -25 -4 -6 15 15 15 38 16 38 0z m-126
-20 c-3 -4 -9 -8 -15 -8 -5 0 -9 4 -9 8 0 5 7 9 15 9 8 0 12 -4 9 -9z m126 -2
c0 -3 -4 -8 -10 -11 -5 -3 -10 -1 -10 4 0 6 5 11 10 11 6 0 10 -2 10 -4z m50
0 c0 -3 -4 -8 -10 -11 -5 -3 -10 -1 -10 4 0 6 5 11 10 11 6 0 10 -2 10 -4z"/>
<path d="M2398 3043 c7 -3 16 -2 19 1 4 3 -2 6 -13 5 -11 0 -14 -3 -6 -6z"/>
<path d="M2480 2969 c0 -5 9 -9 20 -9 11 0 20 2 20 4 0 2 -9 6 -20 9 -11 3
-20 1 -20 -4z"/>
<path d="M1000 2850 c-8 -5 -11 -12 -7 -16 4 -4 15 0 24 9 18 18 8 23 -17 7z"/>
<path d="M985 2800 c-3 -5 1 -10 9 -10 9 0 16 5 16 10 0 6 -4 10 -9 10 -6 0
-13 -4 -16 -10z"/>
<path d="M550 2190 c-9 -6 -10 -10 -3 -10 6 0 15 5 18 10 8 12 4 12 -15 0z"/>
<path d="M620 2170 c0 -5 5 -10 11 -10 5 0 7 5 4 10 -3 6 -8 10 -11 10 -2 0
-4 -4 -4 -10z"/>
<path d="M541 2137 c17 -32 19 -33 19 -10 0 12 -7 23 -15 27 -13 5 -14 2 -4
-17z"/>
<path d="M525 1959 c-10 -15 3 -25 16 -12 7 7 7 13 1 17 -6 3 -14 1 -17 -5z"/>
<path d="M1823 2834 c-15 -16 -16 -24 -4 -24 8 0 24 30 19 35 -2 2 -9 -3 -15
-11z"/>
<path d="M2056 2758 c3 -4 11 -5 19 -1 21 7 19 12 -4 10 -11 0 -18 -5 -15 -9z"/>
<path d="M2035 2730 c-3 -5 -1 -10 4 -10 6 0 11 5 11 10 0 6 -2 10 -4 10 -3 0
-8 -4 -11 -10z"/>
<path d="M1990 2709 c0 -5 5 -7 10 -4 6 3 10 8 10 11 0 2 -4 4 -10 4 -5 0 -10
-5 -10 -11z"/>
<path d="M1098 2663 c6 -2 18 -2 25 0 6 3 1 5 -13 5 -14 0 -19 -2 -12 -5z"/>
<path d="M1615 2740 c3 -5 8 -10 11 -10 2 0 4 5 4 10 0 6 -5 10 -11 10 -5 0
-7 -4 -4 -10z"/>
<path d="M2391 1954 c0 -11 3 -14 6 -6 3 7 2 16 -1 19 -3 4 -6 -2 -5 -13z"/>
<path d="M2339 1763 c-13 -17 -13 -17 6 -3 11 8 22 16 24 17 2 2 0 3 -6 3 -6
0 -17 -8 -24 -17z"/>
<path d="M2305 1720 c-3 -5 1 -10 10 -10 9 0 13 5 10 10 -3 6 -8 10 -10 10 -2
0 -7 -4 -10 -10z"/>
<path d="M2242 1529 c2 -7 10 -15 17 -17 8 -3 12 1 9 9 -2 7 -10 15 -17 17 -8
3 -12 -1 -9 -9z"/>
<path d="M2165 1450 c-3 -5 1 -10 10 -10 9 0 13 5 10 10 -3 6 -8 10 -10 10 -2
0 -7 -4 -10 -10z"/>
<path d="M2140 1346 c0 -9 5 -16 10 -16 6 0 10 4 10 9 0 6 -4 13 -10 16 -5 3
-10 -1 -10 -9z"/>
<path d="M1970 1339 c0 -11 25 -22 39 -17 6 1 -1 8 -14 15 -14 6 -25 7 -25 2z"/>
<path d="M1860 1287 c0 -16 20 -37 36 -37 7 0 11 8 9 18 -2 9 -4 20 -4 25 -2
13 -41 7 -41 -6z"/>
<path d="M1830 1223 c0 -10 4 -14 8 -8 4 6 11 13 16 18 5 4 2 7 -7 7 -10 0
-17 -8 -17 -17z"/>
<path d="M2565 1600 c-3 -5 -2 -10 4 -10 5 0 13 5 16 10 3 6 2 10 -4 10 -5 0
-13 -4 -16 -10z"/>
<path d="M2536 1558 c-9 -12 -14 -24 -12 -26 7 -7 44 17 50 33 9 23 -21 18
-38 -7z m24 2 c0 -5 -5 -10 -11 -10 -5 0 -7 5 -4 10 3 6 8 10 11 10 2 0 4 -4
4 -10z"/>
<path d="M2195 1160 c-19 -8 -19 -9 3 -9 12 -1 22 4 22 9 0 6 -1 10 -2 9 -2 0
-12 -4 -23 -9z"/>
<path d="M2101 1088 c-14 -23 -14 -23 8 -4 22 20 25 26 13 26 -4 0 -13 -10
-21 -22z"/>
<path d="M2054 1038 c-3 -4 4 -8 15 -8 11 0 22 4 26 9 3 6 -4 9 -16 8 -11 -1
-23 -5 -25 -9z"/>
<path d="M2120 1026 c0 -10 -7 -12 -22 -8 -19 5 -20 4 -8 -10 15 -16 39 -13
52 6 12 17 9 26 -7 26 -8 0 -15 -6 -15 -14z"/>
<path d="M1958 1093 c7 -3 16 -2 19 1 4 3 -2 6 -13 5 -11 0 -14 -3 -6 -6z"/>
<path d="M1574 962 c-6 -4 -8 -16 -4 -26 6 -18 7 -18 13 -2 4 9 11 14 17 11 6
-3 7 1 4 9 -7 18 -13 19 -30 8z"/>
<path d="M1716 902 c-3 -5 1 -15 9 -22 16 -14 20 -3 6 19 -5 8 -11 9 -15 3z"/>
<path d="M1660 3590 c0 -5 5 -10 11 -10 5 0 7 5 4 10 -3 6 -8 10 -11 10 -2 0
-4 -4 -4 -10z"/>
<path d="M1758 3593 c7 -3 16 -2 19 1 4 3 -2 6 -13 5 -11 0 -14 -3 -6 -6z"/>
<path d="M1815 3590 c3 -5 8 -10 11 -10 2 0 4 5 4 10 0 6 -5 10 -11 10 -5 0
-7 -4 -4 -10z"/>
<path d="M1830 3539 c0 -5 5 -7 10 -4 6 3 10 8 10 11 0 2 -4 4 -10 4 -5 0 -10
-5 -10 -11z"/>
<path d="M1986 3518 c3 -5 10 -6 15 -3 13 9 11 12 -6 12 -8 0 -12 -4 -9 -9z"/>
<path d="M1880 3485 c-11 -13 -11 -18 0 -28 10 -10 12 -8 7 6 -5 13 0 20 16
27 15 6 17 9 6 9 -9 1 -22 -6 -29 -14z"/>
<path d="M1980 3480 c0 -5 5 -10 11 -10 5 0 7 5 4 10 -3 6 -8 10 -11 10 -2 0
-4 -4 -4 -10z"/>
<path d="M1934 3426 c11 -9 24 -16 30 -16 12 0 7 5 -24 19 -24 11 -24 11 -6
-3z"/>
<path d="M1377 3199 c7 -7 15 -10 18 -7 3 3 -2 9 -12 12 -14 6 -15 5 -6 -5z"/>
<path d="M493 3085 c0 -8 7 -15 15 -15 12 0 12 3 2 15 -7 8 -13 15 -15 15 -1
0 -2 -7 -2 -15z"/>
<path d="M1135 3040 c3 -5 10 -10 16 -10 5 0 9 5 9 10 0 6 -7 10 -16 10 -8 0
-12 -4 -9 -10z"/>
<path d="M727 3033 c-3 -5 -1 -17 3 -28 6 -17 7 -16 12 8 5 25 -5 37 -15 20z"/>
<path d="M620 2656 c0 -2 7 -7 16 -10 8 -3 12 -2 9 4 -6 10 -25 14 -25 6z"/>
<path d="M617 2559 c7 -7 15 -10 18 -7 3 3 -2 9 -12 12 -14 6 -15 5 -6 -5z"/>
<path d="M570 2449 c-8 -5 -13 -9 -10 -10 3 0 13 -2 23 -4 9 -2 17 1 17 5 0
15 -15 19 -30 9z"/>
<path d="M513 2393 c-18 -7 -16 -20 2 -20 8 0 15 6 15 14 0 7 -1 13 -2 12 -2
0 -9 -3 -15 -6z"/>
<path d="M377 2256 c-4 -9 -2 -16 4 -16 6 0 8 -4 5 -8 -7 -11 11 -38 20 -29 4
3 0 20 -8 37 -12 24 -17 28 -21 16z"/>
<path d="M326 2250 c-17 -6 -18 -7 -3 -13 9 -3 19 -2 23 4 9 15 2 18 -20 9z"/>
<path d="M205 2159 c-4 -6 -5 -12 -2 -15 2 -3 7 2 10 11 7 17 1 20 -8 4z"/>
<path d="M191 2074 c0 -11 3 -14 6 -6 3 7 2 16 -1 19 -3 4 -6 -2 -5 -13z"/>
<path d="M11 2004 c0 -11 3 -14 6 -6 3 7 2 16 -1 19 -3 4 -6 -2 -5 -13z"/>
<path d="M183 1973 c2 -12 6 -26 10 -29 11 -11 8 19 -3 36 -8 12 -9 10 -7 -7z"/>
<path d="M147 1864 c3 -8 11 -14 19 -14 21 0 17 17 -5 23 -14 3 -18 1 -14 -9z"/>
<path d="M403 1595 c0 -8 6 -16 14 -19 11 -4 11 -1 3 14 -13 24 -17 25 -17 5z"/>
<path d="M405 1550 c3 -5 11 -10 16 -10 6 0 7 5 4 10 -3 6 -11 10 -16 10 -6 0
-7 -4 -4 -10z"/>
<path d="M488 1553 c6 -2 18 -2 25 0 6 3 1 5 -13 5 -14 0 -19 -2 -12 -5z"/>
<path d="M436 1533 c-6 -14 -5 -15 5 -6 7 7 10 15 7 18 -3 3 -9 -2 -12 -12z"/>
<path d="M456 1523 c-4 -10 0 -23 11 -32 15 -15 16 -15 5 0 -7 9 -10 24 -6 33
3 9 4 16 1 16 -3 0 -8 -8 -11 -17z"/>
<path d="M420 1506 c0 -2 8 -10 18 -17 15 -13 16 -12 3 4 -13 16 -21 21 -21
13z"/>
<path d="M475 1473 c-28 -7 -39 -19 -24 -28 8 -5 10 -4 5 3 -9 15 16 16 30 2
6 -6 10 -3 10 10 0 11 0 19 -1 19 0 -1 -9 -3 -20 -6z"/>
<path d="M470 1418 c0 -6 3 -8 7 -5 3 4 15 0 25 -10 17 -15 18 -15 18 1 0 11
5 15 13 10 6 -4 9 -4 5 1 -13 13 -68 16 -68 3z"/>
<path d="M530 1080 c0 -5 5 -10 10 -10 6 0 10 5 10 10 0 6 -4 10 -10 10 -5 0
-10 -4 -10 -10z"/>
</g>
</svg>
