<?xml version="1.0" standalone="no"?>
<!DOCTYPE svg PUBLIC "-//W3C//DTD SVG 20010904//EN"
 "http://www.w3.org/TR/2001/REC-SVG-20010904/DTD/svg10.dtd">
<svg version="1.0" xmlns="http://www.w3.org/2000/svg"
 width="128.000000pt" height="128.000000pt" viewBox="0 0 128.000000 128.000000"
 preserveAspectRatio="xMidYMid meet">

<g transform="translate(0.000000,128.000000) scale(0.100000,-0.100000)"
fill="#000000" stroke="none">
<path d="M534 1236 c-23 -56 -47 -64 -94 -31 -20 14 -41 25 -47 25 -6 0 -40
-17 -77 -37 l-65 -38 -3 -60 -3 -60 -60 -3 -60 -3 -38 -65 c-20 -37 -37 -71
-37 -77 0 -6 11 -27 25 -47 33 -47 25 -71 -31 -94 l-44 -18 0 -88 0 -88 44
-18 c56 -23 64 -47 31 -94 -14 -20 -25 -41 -25 -47 0 -6 17 -40 37 -77 l38
-65 60 -3 60 -3 3 -60 3 -60 65 -37 c37 -21 71 -38 77 -38 6 0 27 11 47 25 47
33 71 25 94 -31 l18 -44 88 0 88 0 18 44 c23 56 47 64 94 31 20 -14 42 -25 49
-25 7 0 41 17 76 38 l64 37 3 60 3 60 60 3 60 3 38 65 c20 37 37 71 37 77 0 6
-11 27 -25 47 -33 47 -25 71 31 94 l44 18 0 88 0 88 -44 18 c-56 23 -64 47
-31 94 14 20 25 41 25 47 0 6 -17 40 -37 77 l-38 65 -60 3 -60 3 -3 60 -3 60
-64 38 c-35 20 -69 37 -76 37 -7 0 -29 -11 -49 -25 -47 -33 -71 -25 -94 31
l-18 44 -88 0 -88 0 -18 -44z m191 -39 c28 -58 71 -69 126 -32 l38 27 50 -29
c51 -28 51 -28 51 -77 0 -70 26 -96 94 -96 51 0 51 0 79 -51 l29 -50 -27 -38
c-37 -55 -26 -98 32 -126 l42 -20 0 -65 0 -65 -42 -20 c-58 -28 -69 -71 -32
-126 l27 -38 -29 -50 c-28 -51 -28 -51 -77 -51 -70 0 -96 -26 -96 -94 0 -51 0
-51 -51 -79 l-50 -29 -38 27 c-55 37 -98 26 -126 -32 l-20 -42 -65 0 -65 0
-20 42 c-28 58 -71 69 -126 32 l-38 -27 -50 29 c-51 28 -51 28 -51 77 0 70
-26 96 -94 96 -51 0 -51 0 -79 51 l-29 50 27 38 c37 55 26 98 -32 126 l-42 20
0 65 0 65 42 20 c58 28 69 71 32 126 l-27 38 29 50 c28 51 28 51 77 51 70 0
96 26 96 94 0 51 0 51 51 79 l50 29 38 -27 c55 -37 98 -26 126 32 l20 42 65 0
65 0 20 -42z"/>
<path d="M523 1115 c-52 -14 -152 -62 -185 -88 -20 -16 -24 -47 -7 -47 6 0 25
11 42 24 141 105 343 114 499 23 54 -31 139 -120 166 -173 69 -135 69 -293 0
-428 -27 -53 -112 -142 -166 -173 -140 -82 -324 -82 -464 0 -54 31 -139 120
-166 173 -80 157 -67 346 34 481 28 37 30 53 8 53 -51 0 -134 -200 -134 -320
0 -310 307 -552 603 -475 265 69 428 334 362 588 -69 265 -339 430 -592 362z"/>
<path d="M503 1031 c-105 -39 -190 -116 -241 -221 -25 -50 -27 -65 -27 -170 0
-107 2 -119 29 -175 38 -77 124 -163 201 -201 56 -27 68 -29 175 -29 107 0
119 2 175 29 77 38 163 124 201 201 27 56 29 68 29 175 0 107 -2 119 -29 175
-38 77 -124 163 -201 200 -80 39 -230 46 -312 16z m209 -22 c153 -33 265 -146
298 -302 23 -114 -17 -245 -103 -331 -38 -37 -112 -86 -132 -86 -3 0 -5 26 -5
58 0 54 2 60 40 97 36 36 40 44 40 91 0 34 5 56 15 64 24 20 19 67 -9 85 -48
32 -104 -22 -76 -74 6 -12 15 -21 20 -21 6 0 10 -22 10 -48 0 -43 -4 -52 -40
-87 -39 -39 -40 -40 -40 -112 0 -65 -2 -73 -19 -73 -11 0 -26 -3 -35 -6 -14
-6 -16 21 -16 260 0 257 1 268 21 296 21 28 21 30 5 54 -11 18 -25 26 -46 26
-21 0 -35 -8 -46 -26 -16 -24 -16 -26 5 -54 20 -28 21 -39 21 -296 0 -239 -2
-266 -16 -260 -9 3 -24 6 -35 6 -17 0 -19 8 -19 73 0 72 -1 73 -40 112 -36 35
-40 44 -40 87 0 26 4 48 10 48 5 0 14 9 20 21 28 52 -28 106 -76 74 -28 -18
-33 -65 -9 -85 10 -8 15 -30 15 -64 0 -47 4 -55 40 -91 38 -37 40 -43 40 -97
0 -32 -2 -58 -5 -58 -3 0 -22 9 -43 19 -70 36 -120 89 -159 168 -34 70 -37 82
-37 162 0 75 4 94 31 152 40 86 88 138 163 178 89 48 161 59 252 40z m-56
-150 c10 -17 -13 -36 -27 -22 -12 12 -4 33 11 33 5 0 12 -5 16 -11z m-190
-210 c10 -17 -13 -36 -27 -22 -12 12 -4 33 11 33 5 0 12 -5 16 -11z m380 0
c10 -17 -13 -36 -27 -22 -12 12 -4 33 11 33 5 0 12 -5 16 -11z"/>
</g>
</svg>
